<svg xmlns="http://www.w3.org/2000/svg" width="800" height="600" style="background-color:black"><line x1="266" y1="492" x2="234" y2="536" stroke="purple" stroke-width="1" stroke-opacity="0.45594117965058223" /><line x1="266" y1="492" x2="229" y2="432" stroke="purple" stroke-width="1" stroke-opacity="0.29508865805691575" /><line x1="266" y1="492" x2="232" y2="500" stroke="purple" stroke-width="1" stroke-opacity="0.6507150160685404" /><line x1="266" y1="492" x2="297" y2="522" stroke="purple" stroke-width="1" stroke-opacity="0.5686069077975402" /><line x1="266" y1="492" x2="254" y2="499" stroke="purple" stroke-width="1" stroke-opacity="0.861075560105502" /><line x1="266" y1="492" x2="279" y2="400" stroke="purple" stroke-width="1" stroke-opacity="0.07086061325547066" /><line x1="266" y1="492" x2="262" y2="529" stroke="purple" stroke-width="1" stroke-opacity="0.6278441186814321" /><line x1="266" y1="492" x2="242" y2="399" stroke="purple" stroke-width="1" stroke-opacity="0.039531364385072765" /><line x1="266" y1="492" x2="191" y2="534" stroke="purple" stroke-width="1" stroke-opacity="0.14040707308633582" /><line x1="459" y1="499" x2="489" y2="451" stroke="purple" stroke-width="1" stroke-opacity="0.4339611320766038" /><line x1="459" y1="499" x2="524" y2="470" stroke="purple" stroke-width="1" stroke-opacity="0.28824161402903015" /><line x1="459" y1="499" x2="397" y2="476" stroke="purple" stroke-width="1" stroke-opacity="0.33871337530538237" /><line x1="459" y1="499" x2="449" y2="477" stroke="purple" stroke-width="1" stroke-opacity="0.7583390805281085" /><line x1="459" y1="499" x2="480" y2="445" stroke="purple" stroke-width="1" stroke-opacity="0.42060376252516096" /><line x1="459" y1="499" x2="500" y2="420" stroke="purple" stroke-width="1" stroke-opacity="0.10994382199773478" /><line x1="459" y1="499" x2="478" y2="530" stroke="purple" stroke-width="1" stroke-opacity="0.6364068207460432" /><line x1="459" y1="499" x2="381" y2="481" stroke="purple" stroke-width="1" stroke-opacity="0.1995001561524199" /><line x1="459" y1="499" x2="522" y2="446" stroke="purple" stroke-width="1" stroke-opacity="0.17671390148988908" /><line x1="556" y1="397" x2="489" y2="451" stroke="purple" stroke-width="1" stroke-opacity="0.1394769032733636" /><line x1="556" y1="397" x2="524" y2="470" stroke="purple" stroke-width="1" stroke-opacity="0.202942912960433" /><line x1="556" y1="397" x2="542" y2="302" stroke="purple" stroke-width="1" stroke-opacity="0.039739618645025954" /><line x1="556" y1="397" x2="585" y2="304" stroke="purple" stroke-width="1" stroke-opacity="0.02583368976339573" /><line x1="556" y1="397" x2="474" y2="384" stroke="purple" stroke-width="1" stroke-opacity="0.16975907111248734" /><line x1="556" y1="397" x2="480" y2="445" stroke="purple" stroke-width="1" stroke-opacity="0.10111179783023072" /><line x1="556" y1="397" x2="500" y2="420" stroke="purple" stroke-width="1" stroke-opacity="0.3946075652933876" /><line x1="556" y1="397" x2="652" y2="379" stroke="purple" stroke-width="1" stroke-opacity="0.023270764234017638" /><line x1="556" y1="397" x2="502" y2="361" stroke="purple" stroke-width="1" stroke-opacity="0.3510007704164819" /><line x1="556" y1="397" x2="613" y2="344" stroke="purple" stroke-width="1" stroke-opacity="0.22166845110839817" /><line x1="556" y1="397" x2="522" y2="446" stroke="purple" stroke-width="1" stroke-opacity="0.4035940979500622" /><line x1="119" y1="86" x2="211" y2="65" stroke="purple" stroke-width="1" stroke-opacity="0.05633692453291361" /><line x1="119" y1="86" x2="113" y2="75" stroke="purple" stroke-width="1" stroke-opacity="0.8747003591385833" /><line x1="119" y1="86" x2="85" y2="58" stroke="purple" stroke-width="1" stroke-opacity="0.5595456890890953" /><line x1="119" y1="86" x2="181" y2="104" stroke="purple" stroke-width="1" stroke-opacity="0.3543995043372411" /><line x1="489" y1="451" x2="524" y2="470" stroke="purple" stroke-width="1" stroke-opacity="0.6017538449652025" /><line x1="489" y1="451" x2="397" y2="476" stroke="purple" stroke-width="1" stroke-opacity="0.04663752958279288" /><line x1="489" y1="451" x2="474" y2="384" stroke="purple" stroke-width="1" stroke-opacity="0.31341424424912523" /><line x1="489" y1="451" x2="449" y2="477" stroke="purple" stroke-width="1" stroke-opacity="0.5229255823249375" /><line x1="489" y1="451" x2="480" y2="445" stroke="purple" stroke-width="1" stroke-opacity="0.8918334617360804" /><line x1="489" y1="451" x2="500" y2="420" stroke="purple" stroke-width="1" stroke-opacity="0.6710623159320295" /><line x1="489" y1="451" x2="502" y2="361" stroke="purple" stroke-width="1" stroke-opacity="0.09065957969526073" /><line x1="489" y1="451" x2="478" y2="530" stroke="purple" stroke-width="1" stroke-opacity="0.20237853589562926" /><line x1="489" y1="451" x2="522" y2="446" stroke="purple" stroke-width="1" stroke-opacity="0.6662336146344272" /><line x1="406" y1="159" x2="485" y2="123" stroke="purple" stroke-width="1" stroke-opacity="0.13184102838247413" /><line x1="406" y1="159" x2="380" y2="219" stroke="purple" stroke-width="1" stroke-opacity="0.3460886910291273" /><line x1="406" y1="159" x2="388" y2="160" stroke="purple" stroke-width="1" stroke-opacity="0.8197224362268005" /><line x1="406" y1="159" x2="467" y2="95" stroke="purple" stroke-width="1" stroke-opacity="0.11586200172145067" /><line x1="406" y1="159" x2="467" y2="170" stroke="purple" stroke-width="1" stroke-opacity="0.3801613113075306" /><line x1="406" y1="159" x2="401" y2="76" stroke="purple" stroke-width="1" stroke-opacity="0.1684953397605038" /><line x1="406" y1="159" x2="321" y2="189" stroke="purple" stroke-width="1" stroke-opacity="0.09861218113400272" /><line x1="406" y1="159" x2="472" y2="221" stroke="purple" stroke-width="1" stroke-opacity="0.09446148618625827" /><line x1="406" y1="159" x2="434" y2="144" stroke="purple" stroke-width="1" stroke-opacity="0.6823523965146282" /><line x1="406" y1="159" x2="336" y2="213" stroke="purple" stroke-width="1" stroke-opacity="0.11591855578798627" /><line x1="406" y1="159" x2="340" y2="141" stroke="purple" stroke-width="1" stroke-opacity="0.31589474494051717" /><line x1="469" y1="276" x2="542" y2="302" stroke="purple" stroke-width="1" stroke-opacity="0.22508064935762506" /><line x1="469" y1="276" x2="487" y2="246" stroke="purple" stroke-width="1" stroke-opacity="0.650142886309282" /><line x1="469" y1="276" x2="485" y2="257" stroke="purple" stroke-width="1" stroke-opacity="0.7516051530325156" /><line x1="469" y1="276" x2="500" y2="298" stroke="purple" stroke-width="1" stroke-opacity="0.6198684438250357" /><line x1="469" y1="276" x2="445" y2="291" stroke="purple" stroke-width="1" stroke-opacity="0.716980566038302" /><line x1="469" y1="276" x2="485" y2="249" stroke="purple" stroke-width="1" stroke-opacity="0.6861529034704956" /><line x1="469" y1="276" x2="472" y2="221" stroke="purple" stroke-width="1" stroke-opacity="0.4491824258431836" /><line x1="469" y1="276" x2="515" y2="232" stroke="purple" stroke-width="1" stroke-opacity="0.36344678148641807" /><line x1="469" y1="276" x2="502" y2="361" stroke="purple" stroke-width="1" stroke-opacity="0.08818861599561056" /><line x1="203" y1="309" x2="153" y2="333" stroke="purple" stroke-width="1" stroke-opacity="0.44538301504551814" /><line x1="203" y1="309" x2="223" y2="371" stroke="purple" stroke-width="1" stroke-opacity="0.34854010100390687" /><line x1="203" y1="309" x2="268" y2="255" stroke="purple" stroke-width="1" stroke-opacity="0.15495562246708017" /><line x1="203" y1="309" x2="238" y2="305" stroke="purple" stroke-width="1" stroke-opacity="0.6477217009238293" /><line x1="203" y1="309" x2="141" y2="326" stroke="purple" stroke-width="1" stroke-opacity="0.3571158735821828" /><line x1="203" y1="309" x2="270" y2="271" stroke="purple" stroke-width="1" stroke-opacity="0.2297403035339315" /><line x1="203" y1="309" x2="152" y2="245" stroke="purple" stroke-width="1" stroke-opacity="0.18164799749740934" /><line x1="203" y1="309" x2="242" y2="399" stroke="purple" stroke-width="1" stroke-opacity="0.01913303654369114" /><line x1="333" y1="394" x2="339" y2="296" stroke="purple" stroke-width="1" stroke-opacity="0.01816498330931382" /><line x1="333" y1="394" x2="279" y2="400" stroke="purple" stroke-width="1" stroke-opacity="0.4566768917117551" /><line x1="333" y1="394" x2="242" y2="399" stroke="purple" stroke-width="1" stroke-opacity="0.08862740879484421" /><line x1="333" y1="394" x2="381" y2="481" stroke="purple" stroke-width="1" stroke-opacity="0.0063702902992482935" /><line x1="524" y1="470" x2="474" y2="384" stroke="purple" stroke-width="1" stroke-opacity="0.005213590764329035" /><line x1="524" y1="470" x2="449" y2="477" stroke="purple" stroke-width="1" stroke-opacity="0.24674041658934076" /><line x1="524" y1="470" x2="480" y2="445" stroke="purple" stroke-width="1" stroke-opacity="0.49393676284480026" /><line x1="524" y1="470" x2="500" y2="420" stroke="purple" stroke-width="1" stroke-opacity="0.44538301504551814" /><line x1="524" y1="470" x2="478" y2="530" stroke="purple" stroke-width="1" stroke-opacity="0.243957673142568" /><line x1="524" y1="470" x2="522" y2="446" stroke="purple" stroke-width="1" stroke-opacity="0.759168108424154" /><line x1="485" y1="123" x2="467" y2="95" stroke="purple" stroke-width="1" stroke-opacity="0.6671336604581353" /><line x1="485" y1="123" x2="445" y2="64" stroke="purple" stroke-width="1" stroke-opacity="0.28718866451213065" /><line x1="485" y1="123" x2="467" y2="170" stroke="purple" stroke-width="1" stroke-opacity="0.4967108187135352" /><line x1="485" y1="123" x2="487" y2="73" stroke="purple" stroke-width="1" stroke-opacity="0.4996001598721278" /><line x1="485" y1="123" x2="477" y2="61" stroke="purple" stroke-width="1" stroke-opacity="0.37486001567648863" /><line x1="485" y1="123" x2="401" y2="76" stroke="purple" stroke-width="1" stroke-opacity="0.037451299933348836" /><line x1="485" y1="123" x2="537" y2="96" stroke="purple" stroke-width="1" stroke-opacity="0.4140819169883899" /><line x1="485" y1="123" x2="472" y2="221" stroke="purple" stroke-width="1" stroke-opacity="0.011415152857378708" /><line x1="485" y1="123" x2="434" y2="144" stroke="purple" stroke-width="1" stroke-opacity="0.448456710674493" /><line x1="542" y1="302" x2="487" y2="246" stroke="purple" stroke-width="1" stroke-opacity="0.21507962187238372" /><line x1="542" y1="302" x2="585" y2="304" stroke="purple" stroke-width="1" stroke-opacity="0.5695351349993822" /><line x1="542" y1="302" x2="485" y2="257" stroke="purple" stroke-width="1" stroke-opacity="0.2737768937853877" /><line x1="542" y1="302" x2="500" y2="298" stroke="purple" stroke-width="1" stroke-opacity="0.5780995378054202" /><line x1="542" y1="302" x2="445" y2="291" stroke="purple" stroke-width="1" stroke-opacity="0.02378281105073754" /><line x1="542" y1="302" x2="569" y2="264" stroke="purple" stroke-width="1" stroke-opacity="0.5338455191677334" /><line x1="542" y1="302" x2="485" y2="249" stroke="purple" stroke-width="1" stroke-opacity="0.22166845110839817" /><line x1="542" y1="302" x2="515" y2="232" stroke="purple" stroke-width="1" stroke-opacity="0.24973338072389228" /><line x1="542" y1="302" x2="502" y2="361" stroke="purple" stroke-width="1" stroke-opacity="0.28718866451213065" /><line x1="542" y1="302" x2="613" y2="344" stroke="purple" stroke-width="1" stroke-opacity="0.17507576105438627" /><line x1="676" y1="381" x2="727" y2="465" stroke="purple" stroke-width="1" stroke-opacity="0.017299638750448043" /><line x1="676" y1="381" x2="687" y2="391" stroke="purple" stroke-width="1" stroke-opacity="0.8513393125268149" /><line x1="676" y1="381" x2="750" y2="375" stroke="purple" stroke-width="1" stroke-opacity="0.2575715522691766" /><line x1="676" y1="381" x2="723" y2="392" stroke="purple" stroke-width="1" stroke-opacity="0.5172992645541132" /><line x1="676" y1="381" x2="652" y2="379" stroke="purple" stroke-width="1" stroke-opacity="0.759168108424154" /><line x1="676" y1="381" x2="613" y2="344" stroke="purple" stroke-width="1" stroke-opacity="0.26938382169568686" /><line x1="676" y1="381" x2="658" y2="393" stroke="purple" stroke-width="1" stroke-opacity="0.7836669234721606" /><line x1="676" y1="381" x2="742" y2="363" stroke="purple" stroke-width="1" stroke-opacity="0.31589474494051717" /><line x1="676" y1="381" x2="643" y2="316" stroke="purple" stroke-width="1" stroke-opacity="0.2710281212556961" /><line x1="708" y1="257" x2="654" y2="237" stroke="purple" stroke-width="1" stroke-opacity="0.42415279804448125" /><line x1="708" y1="257" x2="719" y2="239" stroke="purple" stroke-width="1" stroke-opacity="0.7890497689027101" /><line x1="708" y1="257" x2="643" y2="316" stroke="purple" stroke-width="1" stroke-opacity="0.12216174610581021" /><line x1="380" y1="219" x2="388" y2="160" stroke="purple" stroke-width="1" stroke-opacity="0.4046009741358322" /><line x1="380" y1="219" x2="339" y2="296" stroke="purple" stroke-width="1" stroke-opacity="0.12764686049742446" /><line x1="380" y1="219" x2="467" y2="170" stroke="purple" stroke-width="1" stroke-opacity="0.0015011266906707066" /><line x1="380" y1="219" x2="445" y2="291" stroke="purple" stroke-width="1" stroke-opacity="0.030000000000000027" /><line x1="380" y1="219" x2="321" y2="189" stroke="purple" stroke-width="1" stroke-opacity="0.33810877026508346" /><line x1="380" y1="219" x2="472" y2="221" stroke="purple" stroke-width="1" stroke-opacity="0.07978263437381272" /><line x1="380" y1="219" x2="434" y2="144" stroke="purple" stroke-width="1" stroke-opacity="0.07582469195503816" /><line x1="380" y1="219" x2="336" y2="213" stroke="purple" stroke-width="1" stroke-opacity="0.5559279337765096" /><line x1="380" y1="219" x2="335" y2="290" stroke="purple" stroke-width="1" stroke-opacity="0.15940497265329967" /><line x1="380" y1="219" x2="340" y2="141" stroke="purple" stroke-width="1" stroke-opacity="0.12341571996755496" /><line x1="727" y1="465" x2="687" y2="391" stroke="purple" stroke-width="1" stroke-opacity="0.15881036620747635" /><line x1="727" y1="465" x2="750" y2="375" stroke="purple" stroke-width="1" stroke-opacity="0.07107589115148916" /><line x1="727" y1="465" x2="712" y2="512" stroke="purple" stroke-width="1" stroke-opacity="0.5066441446582396" /><line x1="727" y1="465" x2="723" y2="392" stroke="purple" stroke-width="1" stroke-opacity="0.26890493094263035" /><line x1="727" y1="465" x2="658" y2="393" stroke="purple" stroke-width="1" stroke-opacity="0.002753791684320217" /><line x1="727" y1="465" x2="724" y2="543" stroke="purple" stroke-width="1" stroke-opacity="0.21942329012453887" /><line x1="234" y1="536" x2="232" y2="500" stroke="purple" stroke-width="1" stroke-opacity="0.639444872453601" /><line x1="234" y1="536" x2="297" y2="522" stroke="purple" stroke-width="1" stroke-opacity="0.35463188798949785" /><line x1="234" y1="536" x2="254" y2="499" stroke="purple" stroke-width="1" stroke-opacity="0.5794051831037381" /><line x1="234" y1="536" x2="262" y2="529" stroke="purple" stroke-width="1" stroke-opacity="0.7113826062067637" /><line x1="234" y1="536" x2="152" y2="512" stroke="purple" stroke-width="1" stroke-opacity="0.1455996254682469" /><line x1="234" y1="536" x2="191" y2="534" stroke="purple" stroke-width="1" stroke-opacity="0.5695351349993822" /><line x1="229" y1="432" x2="223" y2="371" stroke="purple" stroke-width="1" stroke-opacity="0.38705628317112184" /><line x1="229" y1="432" x2="232" y2="500" stroke="purple" stroke-width="1" stroke-opacity="0.31933855699033453" /><line x1="229" y1="432" x2="254" y2="499" stroke="purple" stroke-width="1" stroke-opacity="0.284877632848755" /><line x1="229" y1="432" x2="279" y2="400" stroke="purple" stroke-width="1" stroke-opacity="0.4063671168137668" /><line x1="229" y1="432" x2="242" y2="399" stroke="purple" stroke-width="1" stroke-opacity="0.6453170429806361" /><line x1="487" y1="246" x2="485" y2="257" stroke="purple" stroke-width="1" stroke-opacity="0.8881966011250105" /><line x1="487" y1="246" x2="467" y2="170" stroke="purple" stroke-width="1" stroke-opacity="0.21412469182446003" /><line x1="487" y1="246" x2="500" y2="298" stroke="purple" stroke-width="1" stroke-opacity="0.4639962686697041" /><line x1="487" y1="246" x2="445" y2="291" stroke="purple" stroke-width="1" stroke-opacity="0.38445146413950426" /><line x1="487" y1="246" x2="569" y2="264" stroke="purple" stroke-width="1" stroke-opacity="0.16047632552738578" /><line x1="487" y1="246" x2="485" y2="249" stroke="purple" stroke-width="1" stroke-opacity="0.9639444872453601" /><line x1="487" y1="246" x2="472" y2="221" stroke="purple" stroke-width="1" stroke-opacity="0.708452405257735" /><line x1="487" y1="246" x2="515" y2="232" stroke="purple" stroke-width="1" stroke-opacity="0.6869504831500295" /><line x1="397" y1="476" x2="449" y2="477" stroke="purple" stroke-width="1" stroke-opacity="0.47990385504216626" /><line x1="397" y1="476" x2="480" y2="445" stroke="purple" stroke-width="1" stroke-opacity="0.11399774266653251" /><line x1="397" y1="476" x2="478" y2="530" stroke="purple" stroke-width="1" stroke-opacity="0.026501155624722994" /><line x1="397" y1="476" x2="381" y2="481" stroke="purple" stroke-width="1" stroke-opacity="0.8323694538575979" /><line x1="388" y1="160" x2="467" y2="170" stroke="purple" stroke-width="1" stroke-opacity="0.2036960379352618" /><line x1="388" y1="160" x2="401" y2="76" stroke="purple" stroke-width="1" stroke-opacity="0.15000000000000002" /><line x1="388" y1="160" x2="321" y2="189" stroke="purple" stroke-width="1" stroke-opacity="0.2699315100622408" /><line x1="388" y1="160" x2="308" y2="129" stroke="purple" stroke-width="1" stroke-opacity="0.14203729684793398" /><line x1="388" y1="160" x2="434" y2="144" stroke="purple" stroke-width="1" stroke-opacity="0.5129681735245631" /><line x1="388" y1="160" x2="336" y2="213" stroke="purple" stroke-width="1" stroke-opacity="0.2575042087661372" /><line x1="388" y1="160" x2="340" y2="141" stroke="purple" stroke-width="1" stroke-opacity="0.48376362003438766" /><line x1="275" y1="218" x2="268" y2="255" stroke="purple" stroke-width="1" stroke-opacity="0.6234365923247454" /><line x1="275" y1="218" x2="238" y2="305" stroke="purple" stroke-width="1" stroke-opacity="0.05459003601612067" /><line x1="275" y1="218" x2="254" y2="173" stroke="purple" stroke-width="1" stroke-opacity="0.5034116392825945" /><line x1="275" y1="218" x2="267" y2="144" stroke="purple" stroke-width="1" stroke-opacity="0.25568823736286417" /><line x1="275" y1="218" x2="321" y2="189" stroke="purple" stroke-width="1" stroke-opacity="0.456216955027099" /><line x1="275" y1="218" x2="270" y2="271" stroke="purple" stroke-width="1" stroke-opacity="0.46764673383175337" /><line x1="275" y1="218" x2="308" y2="129" stroke="purple" stroke-width="1" stroke-opacity="0.05078980199325711" /><line x1="275" y1="218" x2="336" y2="213" stroke="purple" stroke-width="1" stroke-opacity="0.3879542500760258" /><line x1="275" y1="218" x2="271" y2="183" stroke="purple" stroke-width="1" stroke-opacity="0.6477217009238293" /><line x1="275" y1="218" x2="335" y2="290" stroke="purple" stroke-width="1" stroke-opacity="0.06277003889120147" /><line x1="339" y1="296" x2="268" y2="255" stroke="purple" stroke-width="1" stroke-opacity="0.18012196028921468" /><line x1="339" y1="296" x2="270" y2="271" stroke="purple" stroke-width="1" stroke-opacity="0.2661062747236491" /><line x1="339" y1="296" x2="336" y2="213" stroke="purple" stroke-width="1" stroke-opacity="0.16945800828615531" /><line x1="339" y1="296" x2="335" y2="290" stroke="purple" stroke-width="1" stroke-opacity="0.9278889744907202" /><line x1="98" y1="509" x2="103" y2="435" stroke="purple" stroke-width="1" stroke-opacity="0.2583127343684537" /><line x1="98" y1="509" x2="152" y2="512" stroke="purple" stroke-width="1" stroke-opacity="0.45916730868040156" /><line x1="98" y1="509" x2="191" y2="534" stroke="purple" stroke-width="1" stroke-opacity="0.03698390459972056" /><line x1="153" y1="333" x2="223" y2="371" stroke="purple" stroke-width="1" stroke-opacity="0.2035076899304049" /><line x1="153" y1="333" x2="82" y2="289" stroke="purple" stroke-width="1" stroke-opacity="0.16471561728953654" /><line x1="153" y1="333" x2="238" y2="305" stroke="purple" stroke-width="1" stroke-opacity="0.10506983512678492" /><line x1="153" y1="333" x2="141" y2="326" stroke="purple" stroke-width="1" stroke-opacity="0.861075560105502" /><line x1="153" y1="333" x2="152" y2="245" stroke="purple" stroke-width="1" stroke-opacity="0.11994318365232803" /><line x1="585" y1="304" x2="500" y2="298" stroke="purple" stroke-width="1" stroke-opacity="0.1478849842890927" /><line x1="585" y1="304" x2="569" y2="264" stroke="purple" stroke-width="1" stroke-opacity="0.5691868154292397" /><line x1="585" y1="304" x2="654" y2="237" stroke="purple" stroke-width="1" stroke-opacity="0.03823079691643272" /><line x1="585" y1="304" x2="613" y2="344" stroke="purple" stroke-width="1" stroke-opacity="0.5117377753706519" /><line x1="585" y1="304" x2="643" y2="316" stroke="purple" stroke-width="1" stroke-opacity="0.40771628420156614" /><line x1="692" y1="88" x2="623" y2="104" stroke="purple" stroke-width="1" stroke-opacity="0.29169215732140874" /><line x1="692" y1="88" x2="599" y2="90" stroke="purple" stroke-width="1" stroke-opacity="0.06978497109539239" /><line x1="692" y1="88" x2="716" y2="111" stroke="purple" stroke-width="1" stroke-opacity="0.6675845972281067" /><line x1="692" y1="88" x2="643" y2="155" stroke="purple" stroke-width="1" stroke-opacity="0.16993976122211463" /><line x1="692" y1="88" x2="651" y2="75" stroke="purple" stroke-width="1" stroke-opacity="0.5698837366478686" /><line x1="692" y1="88" x2="673" y2="65" stroke="purple" stroke-width="1" stroke-opacity="0.7016713221964741" /><line x1="223" y1="371" x2="238" y2="305" stroke="purple" stroke-width="1" stroke-opacity="0.32316914963929133" /><line x1="223" y1="371" x2="141" y2="326" stroke="purple" stroke-width="1" stroke-opacity="0.06463910708219145" /><line x1="223" y1="371" x2="279" y2="400" stroke="purple" stroke-width="1" stroke-opacity="0.36936539898289755" /><line x1="223" y1="371" x2="242" y2="399" stroke="purple" stroke-width="1" stroke-opacity="0.6616215136862273" /><line x1="268" y1="255" x2="238" y2="305" stroke="purple" stroke-width="1" stroke-opacity="0.41690481051547" /><line x1="268" y1="255" x2="254" y2="173" stroke="purple" stroke-width="1" stroke-opacity="0.16813462627658315" /><line x1="268" y1="255" x2="321" y2="189" stroke="purple" stroke-width="1" stroke-opacity="0.15353676984762066" /><line x1="268" y1="255" x2="270" y2="271" stroke="purple" stroke-width="1" stroke-opacity="0.838754845034029" /><line x1="268" y1="255" x2="336" y2="213" stroke="purple" stroke-width="1" stroke-opacity="0.2007503518924766" /><line x1="268" y1="255" x2="271" y2="183" stroke="purple" stroke-width="1" stroke-opacity="0.2793752710321412" /><line x1="268" y1="255" x2="335" y2="290" stroke="purple" stroke-width="1" stroke-opacity="0.24408995244142973" /><line x1="687" y1="391" x2="750" y2="375" stroke="purple" stroke-width="1" stroke-opacity="0.35" /><line x1="687" y1="391" x2="723" y2="392" stroke="purple" stroke-width="1" stroke-opacity="0.6398611378926178" /><line x1="687" y1="391" x2="652" y2="379" stroke="purple" stroke-width="1" stroke-opacity="0.63" /><line x1="687" y1="391" x2="613" y2="344" stroke="purple" stroke-width="1" stroke-opacity="0.12335868224227542" /><line x1="687" y1="391" x2="658" y2="393" stroke="purple" stroke-width="1" stroke-opacity="0.7093111629250273" /><line x1="687" y1="391" x2="742" y2="363" stroke="purple" stroke-width="1" stroke-opacity="0.38282903503162113" /><line x1="687" y1="391" x2="643" y2="316" stroke="purple" stroke-width="1" stroke-opacity="0.1304598916668651" /><line x1="467" y1="95" x2="445" y2="64" stroke="purple" stroke-width="1" stroke-opacity="0.6198684438250357" /><line x1="467" y1="95" x2="467" y2="170" stroke="purple" stroke-width="1" stroke-opacity="0.25" /><line x1="467" y1="95" x2="487" y2="73" stroke="purple" stroke-width="1" stroke-opacity="0.7026786250536299" /><line x1="467" y1="95" x2="477" y2="61" stroke="purple" stroke-width="1" stroke-opacity="0.645599097066613" /><line x1="467" y1="95" x2="401" y2="76" stroke="purple" stroke-width="1" stroke-opacity="0.31319580665228897" /><line x1="467" y1="95" x2="537" y2="96" stroke="purple" stroke-width="1" stroke-opacity="0.29992857507251447" /><line x1="467" y1="95" x2="434" y2="144" stroke="purple" stroke-width="1" stroke-opacity="0.4092377804903228" /><line x1="750" y1="375" x2="723" y2="392" stroke="purple" stroke-width="1" stroke-opacity="0.6809388773291236" /><line x1="750" y1="375" x2="652" y2="379" stroke="purple" stroke-width="1" stroke-opacity="0.019184013180861714" /><line x1="750" y1="375" x2="658" y2="393" stroke="purple" stroke-width="1" stroke-opacity="0.0625566683793628" /><line x1="750" y1="375" x2="742" y2="363" stroke="purple" stroke-width="1" stroke-opacity="0.8557779489814404" /><line x1="232" y1="500" x2="297" y2="522" stroke="purple" stroke-width="1" stroke-opacity="0.3137784614280895" /><line x1="232" y1="500" x2="254" y2="499" stroke="purple" stroke-width="1" stroke-opacity="0.7797728445445476" /><line x1="232" y1="500" x2="262" y2="529" stroke="purple" stroke-width="1" stroke-opacity="0.5827470790994986" /><line x1="232" y1="500" x2="152" y2="512" stroke="purple" stroke-width="1" stroke-opacity="0.19105006335373265" /><line x1="232" y1="500" x2="191" y2="534" stroke="purple" stroke-width="1" stroke-opacity="0.467365040576569" /><line x1="82" y1="289" x2="141" y2="326" stroke="purple" stroke-width="1" stroke-opacity="0.303580586140794" /><line x1="82" y1="289" x2="116" y2="214" stroke="purple" stroke-width="1" stroke-opacity="0.17653172495839287" /><line x1="82" y1="289" x2="152" y2="245" stroke="purple" stroke-width="1" stroke-opacity="0.17319893565622446" /><line x1="297" y1="522" x2="254" y2="499" stroke="purple" stroke-width="1" stroke-opacity="0.5123525863905356" /><line x1="297" y1="522" x2="262" y2="529" stroke="purple" stroke-width="1" stroke-opacity="0.643068634048505" /><line x1="297" y1="522" x2="381" y2="481" stroke="purple" stroke-width="1" stroke-opacity="0.06528079082539451" /><line x1="238" y1="305" x2="141" y2="326" stroke="purple" stroke-width="1" stroke-opacity="0.007528337936039575" /><line x1="238" y1="305" x2="270" y2="271" stroke="purple" stroke-width="1" stroke-opacity="0.5330952988028499" /><line x1="238" y1="305" x2="242" y2="399" stroke="purple" stroke-width="1" stroke-opacity="0.05914932109287396" /><line x1="238" y1="305" x2="335" y2="290" stroke="purple" stroke-width="1" stroke-opacity="0.018470581184649282" /><line x1="141" y1="326" x2="152" y2="245" stroke="purple" stroke-width="1" stroke-opacity="0.18256498729256776" /><line x1="445" y1="64" x2="487" y2="73" stroke="purple" stroke-width="1" stroke-opacity="0.5704653681017093" /><line x1="445" y1="64" x2="477" y2="61" stroke="purple" stroke-width="1" stroke-opacity="0.678596826400236" /><line x1="445" y1="64" x2="401" y2="76" stroke="purple" stroke-width="1" stroke-opacity="0.5439298299603448" /><line x1="445" y1="64" x2="537" y2="96" stroke="purple" stroke-width="1" stroke-opacity="0.025936347049126285" /><line x1="445" y1="64" x2="434" y2="144" stroke="purple" stroke-width="1" stroke-opacity="0.19247291067110328" /><line x1="485" y1="257" x2="467" y2="170" stroke="purple" stroke-width="1" stroke-opacity="0.11157442630234915" /><line x1="485" y1="257" x2="500" y2="298" stroke="purple" stroke-width="1" stroke-opacity="0.5634224009411386" /><line x1="485" y1="257" x2="445" y2="291" stroke="purple" stroke-width="1" stroke-opacity="0.4750238100637325" /><line x1="485" y1="257" x2="569" y2="264" stroke="purple" stroke-width="1" stroke-opacity="0.15708837948453935" /><line x1="485" y1="257" x2="485" y2="249" stroke="purple" stroke-width="1" stroke-opacity="0.92" /><line x1="485" y1="257" x2="472" y2="221" stroke="purple" stroke-width="1" stroke-opacity="0.6172468158199071" /><line x1="485" y1="257" x2="515" y2="232" stroke="purple" stroke-width="1" stroke-opacity="0.6094875162046673" /><line x1="474" y1="384" x2="500" y2="298" stroke="purple" stroke-width="1" stroke-opacity="0.10155690219135194" /><line x1="474" y1="384" x2="445" y2="291" stroke="purple" stroke-width="1" stroke-opacity="0.02583368976339573" /><line x1="474" y1="384" x2="449" y2="477" stroke="purple" stroke-width="1" stroke-opacity="0.03698390459972056" /><line x1="474" y1="384" x2="480" y2="445" stroke="purple" stroke-width="1" stroke-opacity="0.38705628317112184" /><line x1="474" y1="384" x2="500" y2="420" stroke="purple" stroke-width="1" stroke-opacity="0.5559279337765096" /><line x1="474" y1="384" x2="502" y2="361" stroke="purple" stroke-width="1" stroke-opacity="0.6376465813601313" /><line x1="474" y1="384" x2="522" y2="446" stroke="purple" stroke-width="1" stroke-opacity="0.2159081686434936" /><line x1="254" y1="499" x2="262" y2="529" stroke="purple" stroke-width="1" stroke-opacity="0.6895165060747995" /><line x1="254" y1="499" x2="191" y2="534" stroke="purple" stroke-width="1" stroke-opacity="0.2793058901309099" /><line x1="279" y1="400" x2="242" y2="399" stroke="purple" stroke-width="1" stroke-opacity="0.629864889533565" /><line x1="623" y1="104" x2="599" y2="90" stroke="purple" stroke-width="1" stroke-opacity="0.7221511202110039" /><line x1="623" y1="104" x2="716" y2="111" stroke="purple" stroke-width="1" stroke-opacity="0.06736931210687691" /><line x1="623" y1="104" x2="612" y2="199" stroke="purple" stroke-width="1" stroke-opacity="0.04365278271958151" /><line x1="623" y1="104" x2="537" y2="96" stroke="purple" stroke-width="1" stroke-opacity="0.13628708473243267" /><line x1="623" y1="104" x2="643" y2="155" stroke="purple" stroke-width="1" stroke-opacity="0.4521861630079065" /><line x1="623" y1="104" x2="651" y2="75" stroke="purple" stroke-width="1" stroke-opacity="0.5968871125850725" /><line x1="623" y1="104" x2="673" y2="65" stroke="purple" stroke-width="1" stroke-opacity="0.36588644550049243" /><line x1="467" y1="170" x2="487" y2="73" stroke="purple" stroke-width="1" stroke-opacity="0.009596042011139727" /><line x1="467" y1="170" x2="485" y2="249" stroke="purple" stroke-width="1" stroke-opacity="0.1897531240418141" /><line x1="467" y1="170" x2="472" y2="221" stroke="purple" stroke-width="1" stroke-opacity="0.48755488098724176" /><line x1="467" y1="170" x2="515" y2="232" stroke="purple" stroke-width="1" stroke-opacity="0.2159081686434936" /><line x1="467" y1="170" x2="434" y2="144" stroke="purple" stroke-width="1" stroke-opacity="0.5798809692479999" /><line x1="487" y1="73" x2="477" y2="61" stroke="purple" stroke-width="1" stroke-opacity="0.8437950064818669" /><line x1="487" y1="73" x2="401" y2="76" stroke="purple" stroke-width="1" stroke-opacity="0.1394769032733636" /><line x1="487" y1="73" x2="537" y2="96" stroke="purple" stroke-width="1" stroke-opacity="0.44963648376731946" /><line x1="487" y1="73" x2="434" y2="144" stroke="purple" stroke-width="1" stroke-opacity="0.11399774266653251" /><line x1="301" y1="77" x2="211" y2="65" stroke="purple" stroke-width="1" stroke-opacity="0.09203524297470667" /><line x1="301" y1="77" x2="267" y2="144" stroke="purple" stroke-width="1" stroke-opacity="0.2486678497495265" /><line x1="301" y1="77" x2="308" y2="129" stroke="purple" stroke-width="1" stroke-opacity="0.47530961510620384" /><line x1="301" y1="77" x2="340" y2="141" stroke="purple" stroke-width="1" stroke-opacity="0.25053352309793064" /><line x1="500" y1="298" x2="445" y2="291" stroke="purple" stroke-width="1" stroke-opacity="0.4455633489748355" /><line x1="500" y1="298" x2="569" y2="264" stroke="purple" stroke-width="1" stroke-opacity="0.2307796154547126" /><line x1="500" y1="298" x2="485" y2="249" stroke="purple" stroke-width="1" stroke-opacity="0.48755488098724176" /><line x1="500" y1="298" x2="472" y2="221" stroke="purple" stroke-width="1" stroke-opacity="0.18067100624962618" /><line x1="500" y1="298" x2="515" y2="232" stroke="purple" stroke-width="1" stroke-opacity="0.32316914963929133" /><line x1="500" y1="298" x2="502" y2="361" stroke="purple" stroke-width="1" stroke-opacity="0.36968261962722304" /><line x1="103" y1="435" x2="152" y2="512" stroke="purple" stroke-width="1" stroke-opacity="0.0873116632716292" /><line x1="599" y1="90" x2="537" y2="96" stroke="purple" stroke-width="1" stroke-opacity="0.3771035399041025" /><line x1="599" y1="90" x2="643" y2="155" stroke="purple" stroke-width="1" stroke-opacity="0.21507962187238372" /><line x1="599" y1="90" x2="651" y2="75" stroke="purple" stroke-width="1" stroke-opacity="0.45879763489060765" /><line x1="599" y1="90" x2="673" y2="65" stroke="purple" stroke-width="1" stroke-opacity="0.2189110165928596" /><line x1="712" y1="512" x2="724" y2="543" stroke="purple" stroke-width="1" stroke-opacity="0.6675845972281067" /><line x1="254" y1="173" x2="267" y2="144" stroke="purple" stroke-width="1" stroke-opacity="0.6821950283585859" /><line x1="254" y1="173" x2="213" y2="132" stroke="purple" stroke-width="1" stroke-opacity="0.4201724394270311" /><line x1="254" y1="173" x2="321" y2="189" stroke="purple" stroke-width="1" stroke-opacity="0.311160396028219" /><line x1="254" y1="173" x2="270" y2="271" stroke="purple" stroke-width="1" stroke-opacity="0.007024673015487259" /><line x1="254" y1="173" x2="308" y2="129" stroke="purple" stroke-width="1" stroke-opacity="0.3034370093092801" /><line x1="254" y1="173" x2="336" y2="213" stroke="purple" stroke-width="1" stroke-opacity="0.08764042176343656" /><line x1="254" y1="173" x2="271" y2="183" stroke="purple" stroke-width="1" stroke-opacity="0.8027691707668398" /><line x1="254" y1="173" x2="340" y2="141" stroke="purple" stroke-width="1" stroke-opacity="0.08239442024364307" /><line x1="716" y1="111" x2="643" y2="155" stroke="purple" stroke-width="1" stroke-opacity="0.14765030650559863" /><line x1="716" y1="111" x2="651" y2="75" stroke="purple" stroke-width="1" stroke-opacity="0.2569656804696031" /><line x1="716" y1="111" x2="673" y2="65" stroke="purple" stroke-width="1" stroke-opacity="0.3703175403427533" /><line x1="477" y1="61" x2="401" y2="76" stroke="purple" stroke-width="1" stroke-opacity="0.22533878372542748" /><line x1="477" y1="61" x2="537" y2="96" stroke="purple" stroke-width="1" stroke-opacity="0.30537780052750974" /><line x1="477" y1="61" x2="434" y2="144" stroke="purple" stroke-width="1" stroke-opacity="0.06522730035585655" /><line x1="211" y1="65" x2="267" y2="144" stroke="purple" stroke-width="1" stroke-opacity="0.03165088939990246" /><line x1="211" y1="65" x2="213" y2="132" stroke="purple" stroke-width="1" stroke-opacity="0.32970155900524434" /><line x1="211" y1="65" x2="113" y2="75" stroke="purple" stroke-width="1" stroke-opacity="0.014911171518019906" /><line x1="211" y1="65" x2="181" y2="104" stroke="purple" stroke-width="1" stroke-opacity="0.5079634159942983" /><line x1="445" y1="291" x2="485" y2="249" stroke="purple" stroke-width="1" stroke-opacity="0.42000000000000004" /><line x1="445" y1="291" x2="472" y2="221" stroke="purple" stroke-width="1" stroke-opacity="0.24973338072389228" /><line x1="445" y1="291" x2="515" y2="232" stroke="purple" stroke-width="1" stroke-opacity="0.0845219827871343" /><line x1="445" y1="291" x2="502" y2="361" stroke="purple" stroke-width="1" stroke-opacity="0.09728188231319956" /><line x1="723" y1="392" x2="652" y2="379" stroke="purple" stroke-width="1" stroke-opacity="0.2781967026952564" /><line x1="723" y1="392" x2="658" y2="393" stroke="purple" stroke-width="1" stroke-opacity="0.3499230814741998" /><line x1="723" y1="392" x2="742" y2="363" stroke="purple" stroke-width="1" stroke-opacity="0.6533012835328057" /><line x1="401" y1="76" x2="434" y2="144" stroke="purple" stroke-width="1" stroke-opacity="0.2441561007721238" /><line x1="401" y1="76" x2="340" y2="141" stroke="purple" stroke-width="1" stroke-opacity="0.10859661207733795" /><line x1="569" y1="264" x2="612" y2="199" stroke="purple" stroke-width="1" stroke-opacity="0.22064128926405147" /><line x1="569" y1="264" x2="485" y2="249" stroke="purple" stroke-width="1" stroke-opacity="0.1467122408003264" /><line x1="569" y1="264" x2="515" y2="232" stroke="purple" stroke-width="1" stroke-opacity="0.37230580694099136" /><line x1="569" y1="264" x2="654" y2="237" stroke="purple" stroke-width="1" stroke-opacity="0.1081479943398681" /><line x1="569" y1="264" x2="613" y2="344" stroke="purple" stroke-width="1" stroke-opacity="0.08698302315893391" /><line x1="569" y1="264" x2="643" y2="316" stroke="purple" stroke-width="1" stroke-opacity="0.09556647563239895" /><line x1="262" y1="529" x2="191" y2="534" stroke="purple" stroke-width="1" stroke-opacity="0.28824161402903015" /><line x1="267" y1="144" x2="213" y2="132" stroke="purple" stroke-width="1" stroke-opacity="0.4468273325624268" /><line x1="267" y1="144" x2="321" y2="189" stroke="purple" stroke-width="1" stroke-opacity="0.297077529168401" /><line x1="267" y1="144" x2="308" y2="129" stroke="purple" stroke-width="1" stroke-opacity="0.5634224009411386" /><line x1="267" y1="144" x2="336" y2="213" stroke="purple" stroke-width="1" stroke-opacity="0.02419264196256432" /><line x1="267" y1="144" x2="271" y2="183" stroke="purple" stroke-width="1" stroke-opacity="0.6079540843217468" /><line x1="267" y1="144" x2="340" y2="141" stroke="purple" stroke-width="1" stroke-opacity="0.26938382169568686" /><line x1="267" y1="144" x2="181" y2="104" stroke="purple" stroke-width="1" stroke-opacity="0.051527543889649974" /><line x1="612" y1="199" x2="654" y2="237" stroke="purple" stroke-width="1" stroke-opacity="0.43360790965974816" /><line x1="612" y1="199" x2="643" y2="155" stroke="purple" stroke-width="1" stroke-opacity="0.46176213436808444" /><line x1="213" y1="132" x2="308" y2="129" stroke="purple" stroke-width="1" stroke-opacity="0.049526433823643856" /><line x1="213" y1="132" x2="271" y2="183" stroke="purple" stroke-width="1" stroke-opacity="0.22766587541401495" /><line x1="213" y1="132" x2="181" y2="104" stroke="purple" stroke-width="1" stroke-opacity="0.5747941674906141" /><line x1="449" y1="477" x2="480" y2="445" stroke="purple" stroke-width="1" stroke-opacity="0.5544666118010908" /><line x1="449" y1="477" x2="500" y2="420" stroke="purple" stroke-width="1" stroke-opacity="0.23514707296108228" /><line x1="449" y1="477" x2="478" y2="530" stroke="purple" stroke-width="1" stroke-opacity="0.39584770132027136" /><line x1="449" y1="477" x2="381" y2="481" stroke="purple" stroke-width="1" stroke-opacity="0.3188245453629439" /><line x1="449" y1="477" x2="522" y2="446" stroke="purple" stroke-width="1" stroke-opacity="0.20690479764406589" /><line x1="485" y1="249" x2="472" y2="221" stroke="purple" stroke-width="1" stroke-opacity="0.6912930191913373" /><line x1="485" y1="249" x2="515" y2="232" stroke="purple" stroke-width="1" stroke-opacity="0.6551812070086667" /><line x1="480" y1="445" x2="500" y2="420" stroke="purple" stroke-width="1" stroke-opacity="0.6798437881283576" /><line x1="480" y1="445" x2="502" y2="361" stroke="purple" stroke-width="1" stroke-opacity="0.13166826615630356" /><line x1="480" y1="445" x2="478" y2="530" stroke="purple" stroke-width="1" stroke-opacity="0.14976473844000093" /><line x1="480" y1="445" x2="522" y2="446" stroke="purple" stroke-width="1" stroke-opacity="0.5798809692479999" /><line x1="321" y1="189" x2="270" y2="271" stroke="purple" stroke-width="1" stroke-opacity="0.034339604208601715" /><line x1="321" y1="189" x2="308" y2="129" stroke="purple" stroke-width="1" stroke-opacity="0.3860781808731669" /><line x1="321" y1="189" x2="336" y2="213" stroke="purple" stroke-width="1" stroke-opacity="0.716980566038302" /><line x1="321" y1="189" x2="271" y2="183" stroke="purple" stroke-width="1" stroke-opacity="0.49641286751943314" /><line x1="321" y1="189" x2="340" y2="141" stroke="purple" stroke-width="1" stroke-opacity="0.48376362003438766" /><line x1="500" y1="420" x2="502" y2="361" stroke="purple" stroke-width="1" stroke-opacity="0.4096611142741824" /><line x1="500" y1="420" x2="522" y2="446" stroke="purple" stroke-width="1" stroke-opacity="0.659412272681472" /><line x1="472" y1="221" x2="515" y2="232" stroke="purple" stroke-width="1" stroke-opacity="0.5561531795765571" /><line x1="472" y1="221" x2="434" y2="144" stroke="purple" stroke-width="1" stroke-opacity="0.1413382505316777" /><line x1="652" y1="379" x2="613" y2="344" stroke="purple" stroke-width="1" stroke-opacity="0.47597709973704394" /><line x1="652" y1="379" x2="658" y2="393" stroke="purple" stroke-width="1" stroke-opacity="0.8476845378827218" /><line x1="652" y1="379" x2="742" y2="363" stroke="purple" stroke-width="1" stroke-opacity="0.08588840943788478" /><line x1="652" y1="379" x2="643" y2="316" stroke="purple" stroke-width="1" stroke-opacity="0.36360389693210715" /><line x1="270" y1="271" x2="336" y2="213" stroke="purple" stroke-width="1" stroke-opacity="0.12136469454044818" /><line x1="270" y1="271" x2="271" y2="183" stroke="purple" stroke-width="1" stroke-opacity="0.11994318365232803" /><line x1="270" y1="271" x2="335" y2="290" stroke="purple" stroke-width="1" stroke-opacity="0.32279988186651953" /><line x1="116" y1="214" x2="152" y2="245" stroke="purple" stroke-width="1" stroke-opacity="0.5249210591912119" /><line x1="502" y1="361" x2="522" y2="446" stroke="purple" stroke-width="1" stroke-opacity="0.12678754017135097" /><line x1="308" y1="129" x2="336" y2="213" stroke="purple" stroke-width="1" stroke-opacity="0.11456225515285379" /><line x1="308" y1="129" x2="271" y2="183" stroke="purple" stroke-width="1" stroke-opacity="0.34540088603787433" /><line x1="308" y1="129" x2="340" y2="141" stroke="purple" stroke-width="1" stroke-opacity="0.6582398501872988" /><line x1="654" y1="237" x2="643" y2="155" stroke="purple" stroke-width="1" stroke-opacity="0.17265484832507783" /><line x1="654" y1="237" x2="719" y2="239" stroke="purple" stroke-width="1" stroke-opacity="0.34969238048443574" /><line x1="654" y1="237" x2="643" y2="316" stroke="purple" stroke-width="1" stroke-opacity="0.20237853589562926" /><line x1="613" y1="344" x2="658" y2="393" stroke="purple" stroke-width="1" stroke-opacity="0.3347181048608041" /><line x1="613" y1="344" x2="643" y2="316" stroke="purple" stroke-width="1" stroke-opacity="0.5896343094263361" /><line x1="434" y1="144" x2="340" y2="141" stroke="purple" stroke-width="1" stroke-opacity="0.059521398435881445" /><line x1="336" y1="213" x2="271" y2="183" stroke="purple" stroke-width="1" stroke-opacity="0.2841089468361824" /><line x1="336" y1="213" x2="335" y2="290" stroke="purple" stroke-width="1" stroke-opacity="0.22993506767286176" /><line x1="336" y1="213" x2="340" y2="141" stroke="purple" stroke-width="1" stroke-opacity="0.2788897449072022" /><line x1="643" y1="155" x2="651" y2="75" stroke="purple" stroke-width="1" stroke-opacity="0.19600995031032875" /><line x1="643" y1="155" x2="673" y2="65" stroke="purple" stroke-width="1" stroke-opacity="0.05131670194948623" /><line x1="478" y1="530" x2="522" y2="446" stroke="purple" stroke-width="1" stroke-opacity="0.051738432709624194" /><line x1="271" y1="183" x2="340" y2="141" stroke="purple" stroke-width="1" stroke-opacity="0.19222527892982444" /><line x1="651" y1="75" x2="673" y2="65" stroke="purple" stroke-width="1" stroke-opacity="0.7583390805281085" /><line x1="658" y1="393" x2="742" y2="363" stroke="purple" stroke-width="1" stroke-opacity="0.10803587516088964" /><line x1="658" y1="393" x2="643" y2="316" stroke="purple" stroke-width="1" stroke-opacity="0.21552565370179255" /><line x1="152" y1="512" x2="191" y2="534" stroke="purple" stroke-width="1" stroke-opacity="0.5522277364552378" /><line x1="113" y1="75" x2="85" y2="58" stroke="purple" stroke-width="1" stroke-opacity="0.672433212916816" /><line x1="113" y1="75" x2="181" y2="104" stroke="purple" stroke-width="1" stroke-opacity="0.2607436168689512" /><circle cx="266" cy="492" r="2" fill="cyan" /><circle cx="459" cy="499" r="2" fill="cyan" /><circle cx="556" cy="397" r="2" fill="cyan" /><circle cx="119" cy="86" r="2" fill="cyan" /><circle cx="489" cy="451" r="2" fill="cyan" /><circle cx="406" cy="159" r="2" fill="cyan" /><circle cx="469" cy="276" r="2" fill="cyan" /><circle cx="203" cy="309" r="2" fill="cyan" /><circle cx="333" cy="394" r="2" fill="cyan" /><circle cx="524" cy="470" r="2" fill="cyan" /><circle cx="485" cy="123" r="2" fill="cyan" /><circle cx="542" cy="302" r="2" fill="cyan" /><circle cx="676" cy="381" r="2" fill="cyan" /><circle cx="708" cy="257" r="2" fill="cyan" /><circle cx="380" cy="219" r="2" fill="cyan" /><circle cx="727" cy="465" r="2" fill="cyan" /><circle cx="234" cy="536" r="2" fill="cyan" /><circle cx="229" cy="432" r="2" fill="cyan" /><circle cx="487" cy="246" r="2" fill="cyan" /><circle cx="397" cy="476" r="2" fill="cyan" /><circle cx="388" cy="160" r="2" fill="cyan" /><circle cx="275" cy="218" r="2" fill="cyan" /><circle cx="339" cy="296" r="2" fill="cyan" /><circle cx="98" cy="509" r="2" fill="cyan" /><circle cx="153" cy="333" r="2" fill="cyan" /><circle cx="585" cy="304" r="2" fill="cyan" /><circle cx="692" cy="88" r="2" fill="cyan" /><circle cx="223" cy="371" r="2" fill="cyan" /><circle cx="268" cy="255" r="2" fill="cyan" /><circle cx="687" cy="391" r="2" fill="cyan" /><circle cx="467" cy="95" r="2" fill="cyan" /><circle cx="750" cy="375" r="2" fill="cyan" /><circle cx="232" cy="500" r="2" fill="cyan" /><circle cx="82" cy="289" r="2" fill="cyan" /><circle cx="297" cy="522" r="2" fill="cyan" /><circle cx="238" cy="305" r="2" fill="cyan" /><circle cx="141" cy="326" r="2" fill="cyan" /><circle cx="445" cy="64" r="2" fill="cyan" /><circle cx="485" cy="257" r="2" fill="cyan" /><circle cx="474" cy="384" r="2" fill="cyan" /><circle cx="254" cy="499" r="2" fill="cyan" /><circle cx="279" cy="400" r="2" fill="cyan" /><circle cx="623" cy="104" r="2" fill="cyan" /><circle cx="467" cy="170" r="2" fill="cyan" /><circle cx="487" cy="73" r="2" fill="cyan" /><circle cx="301" cy="77" r="2" fill="cyan" /><circle cx="500" cy="298" r="2" fill="cyan" /><circle cx="103" cy="435" r="2" fill="cyan" /><circle cx="599" cy="90" r="2" fill="cyan" /><circle cx="712" cy="512" r="2" fill="cyan" /><circle cx="254" cy="173" r="2" fill="cyan" /><circle cx="716" cy="111" r="2" fill="cyan" /><circle cx="477" cy="61" r="2" fill="cyan" /><circle cx="211" cy="65" r="2" fill="cyan" /><circle cx="445" cy="291" r="2" fill="cyan" /><circle cx="723" cy="392" r="2" fill="cyan" /><circle cx="401" cy="76" r="2" fill="cyan" /><circle cx="569" cy="264" r="2" fill="cyan" /><circle cx="262" cy="529" r="2" fill="cyan" /><circle cx="267" cy="144" r="2" fill="cyan" /><circle cx="612" cy="199" r="2" fill="cyan" /><circle cx="213" cy="132" r="2" fill="cyan" /><circle cx="537" cy="96" r="2" fill="cyan" /><circle cx="449" cy="477" r="2" fill="cyan" /><circle cx="485" cy="249" r="2" fill="cyan" /><circle cx="480" cy="445" r="2" fill="cyan" /><circle cx="321" cy="189" r="2" fill="cyan" /><circle cx="500" cy="420" r="2" fill="cyan" /><circle cx="472" cy="221" r="2" fill="cyan" /><circle cx="652" cy="379" r="2" fill="cyan" /><circle cx="270" cy="271" r="2" fill="cyan" /><circle cx="116" cy="214" r="2" fill="cyan" /><circle cx="515" cy="232" r="2" fill="cyan" /><circle cx="502" cy="361" r="2" fill="cyan" /><circle cx="308" cy="129" r="2" fill="cyan" /><circle cx="654" cy="237" r="2" fill="cyan" /><circle cx="613" cy="344" r="2" fill="cyan" /><circle cx="434" cy="144" r="2" fill="cyan" /><circle cx="336" cy="213" r="2" fill="cyan" /><circle cx="643" cy="155" r="2" fill="cyan" /><circle cx="478" cy="530" r="2" fill="cyan" /><circle cx="271" cy="183" r="2" fill="cyan" /><circle cx="651" cy="75" r="2" fill="cyan" /><circle cx="658" cy="393" r="2" fill="cyan" /><circle cx="152" cy="245" r="2" fill="cyan" /><circle cx="742" cy="363" r="2" fill="cyan" /><circle cx="242" cy="399" r="2" fill="cyan" /><circle cx="673" cy="65" r="2" fill="cyan" /><circle cx="335" cy="290" r="2" fill="cyan" /><circle cx="152" cy="512" r="2" fill="cyan" /><circle cx="340" cy="141" r="2" fill="cyan" /><circle cx="113" cy="75" r="2" fill="cyan" /><circle cx="85" cy="58" r="2" fill="cyan" /><circle cx="181" cy="104" r="2" fill="cyan" /><circle cx="719" cy="239" r="2" fill="cyan" /><circle cx="191" cy="534" r="2" fill="cyan" /><circle cx="643" cy="316" r="2" fill="cyan" /><circle cx="724" cy="543" r="2" fill="cyan" /><circle cx="381" cy="481" r="2" fill="cyan" /><circle cx="522" cy="446" r="2" fill="cyan" /></svg>