<svg xmlns="http://www.w3.org/2000/svg" width="800" height="600" style="background-color:black"><line x1="466" y1="425" x2="487" y2="385" stroke="purple" stroke-width="1" stroke-opacity="0.5482257200769393" /><line x1="466" y1="425" x2="493" y2="478" stroke="purple" stroke-width="1" stroke-opacity="0.4051891056814779" /><line x1="466" y1="425" x2="453" y2="429" stroke="purple" stroke-width="1" stroke-opacity="0.8639852949126455" /><line x1="466" y1="425" x2="451" y2="368" stroke="purple" stroke-width="1" stroke-opacity="0.41059351886834494" /><line x1="466" y1="425" x2="491" y2="493" stroke="purple" stroke-width="1" stroke-opacity="0.2755001725328018" /><line x1="466" y1="425" x2="487" y2="505" stroke="purple" stroke-width="1" stroke-opacity="0.1728966207299113" /><line x1="466" y1="425" x2="474" y2="336" stroke="purple" stroke-width="1" stroke-opacity="0.1064117279193958" /><line x1="466" y1="425" x2="427" y2="393" stroke="purple" stroke-width="1" stroke-opacity="0.49552006977482244" /><line x1="466" y1="425" x2="480" y2="522" stroke="purple" stroke-width="1" stroke-opacity="0.01994898091987063" /><line x1="466" y1="425" x2="474" y2="441" stroke="purple" stroke-width="1" stroke-opacity="0.8211145618000169" /><line x1="466" y1="425" x2="564" y2="425" stroke="purple" stroke-width="1" stroke-opacity="0.020000000000000018" /><line x1="466" y1="425" x2="450" y2="414" stroke="purple" stroke-width="1" stroke-opacity="0.805835121610524" /><line x1="466" y1="425" x2="458" y2="343" stroke="purple" stroke-width="1" stroke-opacity="0.17610680303816084" /><line x1="466" y1="425" x2="529" y2="451" stroke="purple" stroke-width="1" stroke-opacity="0.3184576315444505" /><line x1="240" y1="58" x2="319" y2="75" stroke="purple" stroke-width="1" stroke-opacity="0.191915845966523" /><line x1="240" y1="58" x2="313" y2="108" stroke="purple" stroke-width="1" stroke-opacity="0.11518363487105421" /><line x1="240" y1="58" x2="206" y2="133" stroke="purple" stroke-width="1" stroke-opacity="0.17653172495839287" /><line x1="240" y1="58" x2="298" y2="132" stroke="purple" stroke-width="1" stroke-opacity="0.05978725811654728" /><line x1="240" y1="58" x2="276" y2="122" stroke="purple" stroke-width="1" stroke-opacity="0.2656976099725672" /><line x1="240" y1="58" x2="325" y2="82" stroke="purple" stroke-width="1" stroke-opacity="0.11676730132993829" /><line x1="240" y1="58" x2="178" y2="133" stroke="purple" stroke-width="1" stroke-opacity="0.026912131408473483" /><line x1="487" y1="385" x2="493" y2="478" stroke="purple" stroke-width="1" stroke-opacity="0.06806652597945595" /><line x1="487" y1="385" x2="453" y2="429" stroke="purple" stroke-width="1" stroke-opacity="0.4439424490216862" /><line x1="487" y1="385" x2="451" y2="368" stroke="purple" stroke-width="1" stroke-opacity="0.6018794152521123" /><line x1="487" y1="385" x2="474" y2="336" stroke="purple" stroke-width="1" stroke-opacity="0.49304832577453694" /><line x1="487" y1="385" x2="565" y2="403" stroke="purple" stroke-width="1" stroke-opacity="0.1995001561524199" /><line x1="487" y1="385" x2="538" y2="313" stroke="purple" stroke-width="1" stroke-opacity="0.11767352980883539" /><line x1="487" y1="385" x2="427" y2="393" stroke="purple" stroke-width="1" stroke-opacity="0.3946901619831378" /><line x1="487" y1="385" x2="474" y2="441" stroke="purple" stroke-width="1" stroke-opacity="0.4251087059278076" /><line x1="487" y1="385" x2="564" y2="425" stroke="purple" stroke-width="1" stroke-opacity="0.13230189581859753" /><line x1="487" y1="385" x2="450" y2="414" stroke="purple" stroke-width="1" stroke-opacity="0.5298936290582736" /><line x1="487" y1="385" x2="458" y2="343" stroke="purple" stroke-width="1" stroke-opacity="0.4896079937930061" /><line x1="487" y1="385" x2="529" y2="451" stroke="purple" stroke-width="1" stroke-opacity="0.21769571137568222" /><line x1="272" y1="173" x2="364" y2="153" stroke="purple" stroke-width="1" stroke-opacity="0.05851181632481439" /><line x1="272" y1="173" x2="313" y2="108" stroke="purple" stroke-width="1" stroke-opacity="0.23149495772636597" /><line x1="272" y1="173" x2="206" y2="133" stroke="purple" stroke-width="1" stroke-opacity="0.2282487447370104" /><line x1="272" y1="173" x2="298" y2="132" stroke="purple" stroke-width="1" stroke-opacity="0.5145105562424658" /><line x1="272" y1="173" x2="276" y2="122" stroke="purple" stroke-width="1" stroke-opacity="0.48843377750285344" /><line x1="272" y1="173" x2="210" y2="233" stroke="purple" stroke-width="1" stroke-opacity="0.13721381559508028" /><line x1="319" y1="75" x2="364" y2="153" stroke="purple" stroke-width="1" stroke-opacity="0.09950013881178199" /><line x1="319" y1="75" x2="313" y2="108" stroke="purple" stroke-width="1" stroke-opacity="0.6645898033750315" /><line x1="319" y1="75" x2="403" y2="51" stroke="purple" stroke-width="1" stroke-opacity="0.12638681328633783" /><line x1="319" y1="75" x2="298" y2="132" stroke="purple" stroke-width="1" stroke-opacity="0.39254629806050234" /><line x1="319" y1="75" x2="276" y2="122" stroke="purple" stroke-width="1" stroke-opacity="0.3629756676546806" /><line x1="319" y1="75" x2="393" y2="54" stroke="purple" stroke-width="1" stroke-opacity="0.2307796154547126" /><line x1="319" y1="75" x2="325" y2="82" stroke="purple" stroke-width="1" stroke-opacity="0.9078045554270712" /><line x1="319" y1="75" x2="358" y2="93" stroke="purple" stroke-width="1" stroke-opacity="0.5704653681017093" /><line x1="364" y1="153" x2="313" y2="108" stroke="purple" stroke-width="1" stroke-opacity="0.31985295707472194" /><line x1="364" y1="153" x2="388" y2="224" stroke="purple" stroke-width="1" stroke-opacity="0.25053352309793064" /><line x1="364" y1="153" x2="298" y2="132" stroke="purple" stroke-width="1" stroke-opacity="0.3073962171630883" /><line x1="364" y1="153" x2="276" y2="122" stroke="purple" stroke-width="1" stroke-opacity="0.06699410505613623" /><line x1="364" y1="153" x2="435" y2="85" stroke="purple" stroke-width="1" stroke-opacity="0.016892681341451943" /><line x1="364" y1="153" x2="325" y2="82" stroke="purple" stroke-width="1" stroke-opacity="0.1899382739568546" /><line x1="364" y1="153" x2="358" y2="93" stroke="purple" stroke-width="1" stroke-opacity="0.39700746273274656" /><line x1="364" y1="153" x2="393" y2="171" stroke="purple" stroke-width="1" stroke-opacity="0.6586790366824797" /><line x1="493" y1="478" x2="556" y2="516" stroke="purple" stroke-width="1" stroke-opacity="0.2642690709233436" /><line x1="493" y1="478" x2="453" y2="429" stroke="purple" stroke-width="1" stroke-opacity="0.36746541596526117" /><line x1="493" y1="478" x2="491" y2="493" stroke="purple" stroke-width="1" stroke-opacity="0.8486725404957844" /><line x1="493" y1="478" x2="487" y2="505" stroke="purple" stroke-width="1" stroke-opacity="0.7234136662812134" /><line x1="493" y1="478" x2="553" y2="490" stroke="purple" stroke-width="1" stroke-opacity="0.3881176583688658" /><line x1="493" y1="478" x2="433" y2="546" stroke="purple" stroke-width="1" stroke-opacity="0.0931372760996293" /><line x1="493" y1="478" x2="480" y2="522" stroke="purple" stroke-width="1" stroke-opacity="0.5411972101218215" /><line x1="493" y1="478" x2="474" y2="441" stroke="purple" stroke-width="1" stroke-opacity="0.5840673131382916" /><line x1="493" y1="478" x2="564" y2="425" stroke="purple" stroke-width="1" stroke-opacity="0.11399774266653251" /><line x1="493" y1="478" x2="450" y2="414" stroke="purple" stroke-width="1" stroke-opacity="0.2289617389519506" /><line x1="493" y1="478" x2="529" y2="451" stroke="purple" stroke-width="1" stroke-opacity="0.55" /><line x1="313" y1="108" x2="298" y2="132" stroke="purple" stroke-width="1" stroke-opacity="0.716980566038302" /><line x1="313" y1="108" x2="276" y2="122" stroke="purple" stroke-width="1" stroke-opacity="0.6043991911029504" /><line x1="313" y1="108" x2="393" y2="54" stroke="purple" stroke-width="1" stroke-opacity="0.03480571903890761" /><line x1="313" y1="108" x2="325" y2="82" stroke="purple" stroke-width="1" stroke-opacity="0.7136435787344729" /><line x1="313" y1="108" x2="358" y2="93" stroke="purple" stroke-width="1" stroke-opacity="0.5256583509747431" /><line x1="556" y1="516" x2="491" y2="493" stroke="purple" stroke-width="1" stroke-opacity="0.3105074329624721" /><line x1="556" y1="516" x2="487" y2="505" stroke="purple" stroke-width="1" stroke-opacity="0.30128689721746316" /><line x1="556" y1="516" x2="553" y2="490" stroke="purple" stroke-width="1" stroke-opacity="0.738274953433952" /><line x1="556" y1="516" x2="480" y2="522" stroke="purple" stroke-width="1" stroke-opacity="0.2376352578981633" /><line x1="556" y1="516" x2="564" y2="425" stroke="purple" stroke-width="1" stroke-opacity="0.08649028467125763" /><line x1="556" y1="516" x2="634" y2="539" stroke="purple" stroke-width="1" stroke-opacity="0.1867964584435211" /><line x1="556" y1="516" x2="529" y2="451" stroke="purple" stroke-width="1" stroke-opacity="0.29615342580928894" /><line x1="246" y1="541" x2="147" y2="534" stroke="purple" stroke-width="1" stroke-opacity="0.007528337936039575" /><line x1="246" y1="541" x2="293" y2="516" stroke="purple" stroke-width="1" stroke-opacity="0.46764673383175337" /><line x1="246" y1="541" x2="271" y2="534" stroke="purple" stroke-width="1" stroke-opacity="0.7403849002850567" /><line x1="112" y1="536" x2="147" y2="534" stroke="purple" stroke-width="1" stroke-opacity="0.6494290371408379" /><line x1="112" y1="536" x2="137" y2="459" stroke="purple" stroke-width="1" stroke-opacity="0.19043221407963618" /><line x1="112" y1="536" x2="54" y2="490" stroke="purple" stroke-width="1" stroke-opacity="0.25972977906713013" /><line x1="112" y1="536" x2="159" y2="462" stroke="purple" stroke-width="1" stroke-opacity="0.12335868224227542" /><line x1="112" y1="536" x2="86" y2="479" stroke="purple" stroke-width="1" stroke-opacity="0.37350179569291664" /><line x1="112" y1="536" x2="111" y2="470" stroke="purple" stroke-width="1" stroke-opacity="0.33992424677163" /><line x1="112" y1="536" x2="98" y2="471" stroke="purple" stroke-width="1" stroke-opacity="0.33509399160482845" /><line x1="81" y1="134" x2="134" y2="173" stroke="purple" stroke-width="1" stroke-opacity="0.34197264494551594" /><line x1="81" y1="134" x2="145" y2="183" stroke="purple" stroke-width="1" stroke-opacity="0.19396029874453458" /><line x1="81" y1="134" x2="74" y2="216" stroke="purple" stroke-width="1" stroke-opacity="0.17701761865760457" /><line x1="81" y1="134" x2="178" y2="133" stroke="purple" stroke-width="1" stroke-opacity="0.029948454977777983" /><line x1="610" y1="259" x2="673" y2="279" stroke="purple" stroke-width="1" stroke-opacity="0.3390158852135704" /><line x1="610" y1="259" x2="538" y2="313" stroke="purple" stroke-width="1" stroke-opacity="0.09999999999999998" /><line x1="610" y1="259" x2="570" y2="223" stroke="purple" stroke-width="1" stroke-opacity="0.46185503811705164" /><line x1="610" y1="259" x2="556" y2="213" stroke="purple" stroke-width="1" stroke-opacity="0.29063408596127205" /><line x1="610" y1="259" x2="588" y2="339" stroke="purple" stroke-width="1" stroke-opacity="0.17030125949233832" /><line x1="610" y1="259" x2="630" y2="260" stroke="purple" stroke-width="1" stroke-opacity="0.7997501560549921" /><line x1="610" y1="259" x2="524" y2="248" stroke="purple" stroke-width="1" stroke-opacity="0.13299365630925164" /><line x1="610" y1="259" x2="571" y2="277" stroke="purple" stroke-width="1" stroke-opacity="0.5704653681017093" /><line x1="610" y1="259" x2="568" y2="299" stroke="purple" stroke-width="1" stroke-opacity="0.42000000000000004" /><line x1="147" y1="534" x2="137" y2="459" stroke="purple" stroke-width="1" stroke-opacity="0.2433627024789221" /><line x1="147" y1="534" x2="159" y2="462" stroke="purple" stroke-width="1" stroke-opacity="0.2700684963642136" /><line x1="147" y1="534" x2="86" y2="479" stroke="purple" stroke-width="1" stroke-opacity="0.1786596320647572" /><line x1="147" y1="534" x2="111" y2="470" stroke="purple" stroke-width="1" stroke-opacity="0.2656976099725672" /><line x1="147" y1="534" x2="98" y2="471" stroke="purple" stroke-width="1" stroke-opacity="0.20187720243060336" /><line x1="733" y1="275" x2="673" y2="279" stroke="purple" stroke-width="1" stroke-opacity="0.39866814486508373" /><line x1="733" y1="275" x2="693" y2="316" stroke="purple" stroke-width="1" stroke-opacity="0.4271998603352126" /><line x1="733" y1="275" x2="728" y2="235" stroke="purple" stroke-width="1" stroke-opacity="0.5968871125850725" /><line x1="403" y1="51" x2="435" y2="85" stroke="purple" stroke-width="1" stroke-opacity="0.5330952988028499" /><line x1="403" y1="51" x2="468" y2="122" stroke="purple" stroke-width="1" stroke-opacity="0.03739935591128973" /><line x1="403" y1="51" x2="393" y2="54" stroke="purple" stroke-width="1" stroke-opacity="0.8955969349108945" /><line x1="403" y1="51" x2="325" y2="82" stroke="purple" stroke-width="1" stroke-opacity="0.1606550172902682" /><line x1="403" y1="51" x2="358" y2="93" stroke="purple" stroke-width="1" stroke-opacity="0.38445146413950426" /><line x1="403" y1="51" x2="483" y2="101" stroke="purple" stroke-width="1" stroke-opacity="0.05660188679433953" /><line x1="403" y1="51" x2="447" y2="84" stroke="purple" stroke-width="1" stroke-opacity="0.44999999999999996" /><line x1="137" y1="459" x2="54" y2="490" stroke="purple" stroke-width="1" stroke-opacity="0.11399774266653251" /><line x1="137" y1="459" x2="159" y2="462" stroke="purple" stroke-width="1" stroke-opacity="0.7779639668882548" /><line x1="137" y1="459" x2="67" y2="445" stroke="purple" stroke-width="1" stroke-opacity="0.28613726809701" /><line x1="137" y1="459" x2="86" y2="479" stroke="purple" stroke-width="1" stroke-opacity="0.4521861630079065" /><line x1="137" y1="459" x2="111" y2="470" stroke="purple" stroke-width="1" stroke-opacity="0.7176881157301379" /><line x1="137" y1="459" x2="183" y2="384" stroke="purple" stroke-width="1" stroke-opacity="0.12017047105703482" /><line x1="137" y1="459" x2="98" y2="471" stroke="purple" stroke-width="1" stroke-opacity="0.5919558847379367" /><line x1="388" y1="224" x2="351" y2="308" stroke="purple" stroke-width="1" stroke-opacity="0.08212201246570894" /><line x1="388" y1="224" x2="410" y2="315" stroke="purple" stroke-width="1" stroke-opacity="0.0637842129081565" /><line x1="388" y1="224" x2="393" y2="171" stroke="purple" stroke-width="1" stroke-opacity="0.46764673383175337" /><line x1="388" y1="224" x2="426" y2="243" stroke="purple" stroke-width="1" stroke-opacity="0.5751470842750399" /><line x1="206" y1="133" x2="134" y2="173" stroke="purple" stroke-width="1" stroke-opacity="0.1763495887210399" /><line x1="206" y1="133" x2="298" y2="132" stroke="purple" stroke-width="1" stroke-opacity="0.07994565377908247" /><line x1="206" y1="133" x2="276" y2="122" stroke="purple" stroke-width="1" stroke-opacity="0.29140985047772505" /><line x1="206" y1="133" x2="145" y2="183" stroke="purple" stroke-width="1" stroke-opacity="0.21126683853156014" /><line x1="206" y1="133" x2="178" y2="133" stroke="purple" stroke-width="1" stroke-opacity="0.72" /><line x1="206" y1="133" x2="154" y2="212" stroke="purple" stroke-width="1" stroke-opacity="0.05421989870795019" /><line x1="453" y1="429" x2="451" y2="368" stroke="purple" stroke-width="1" stroke-opacity="0.38967221921331485" /><line x1="453" y1="429" x2="491" y2="493" stroke="purple" stroke-width="1" stroke-opacity="0.25568823736286417" /><line x1="453" y1="429" x2="487" y2="505" stroke="purple" stroke-width="1" stroke-opacity="0.16741366814005398" /><line x1="453" y1="429" x2="474" y2="336" stroke="purple" stroke-width="1" stroke-opacity="0.04658508507575776" /><line x1="453" y1="429" x2="427" y2="393" stroke="purple" stroke-width="1" stroke-opacity="0.5559279337765096" /><line x1="453" y1="429" x2="480" y2="522" stroke="purple" stroke-width="1" stroke-opacity="0.031599256505861595" /><line x1="453" y1="429" x2="474" y2="441" stroke="purple" stroke-width="1" stroke-opacity="0.7581322675510436" /><line x1="453" y1="429" x2="450" y2="414" stroke="purple" stroke-width="1" stroke-opacity="0.8470294145922165" /><line x1="453" y1="429" x2="458" y2="343" stroke="purple" stroke-width="1" stroke-opacity="0.1385477378287291" /><line x1="453" y1="429" x2="529" y2="451" stroke="purple" stroke-width="1" stroke-opacity="0.20879838220590075" /><line x1="134" y1="173" x2="210" y2="233" stroke="purple" stroke-width="1" stroke-opacity="0.03170252504718363" /><line x1="134" y1="173" x2="145" y2="183" stroke="purple" stroke-width="1" stroke-opacity="0.8513393125268149" /><line x1="134" y1="173" x2="74" y2="216" stroke="purple" stroke-width="1" stroke-opacity="0.2618265786415769" /><line x1="134" y1="173" x2="178" y2="133" stroke="purple" stroke-width="1" stroke-opacity="0.40535725010725976" /><line x1="134" y1="173" x2="154" y2="212" stroke="purple" stroke-width="1" stroke-opacity="0.5617078599837775" /><line x1="54" y1="490" x2="67" y2="445" stroke="purple" stroke-width="1" stroke-opacity="0.5315984628547852" /><line x1="54" y1="490" x2="86" y2="479" stroke="purple" stroke-width="1" stroke-opacity="0.6616215136862273" /><line x1="54" y1="490" x2="111" y2="470" stroke="purple" stroke-width="1" stroke-opacity="0.39593046757844175" /><line x1="54" y1="490" x2="98" y2="471" stroke="purple" stroke-width="1" stroke-opacity="0.5207297213471296" /><line x1="451" y1="368" x2="474" y2="336" stroke="purple" stroke-width="1" stroke-opacity="0.6059187900952394" /><line x1="451" y1="368" x2="388" y2="337" stroke="purple" stroke-width="1" stroke-opacity="0.29786041273832164" /><line x1="451" y1="368" x2="427" y2="393" stroke="purple" stroke-width="1" stroke-opacity="0.6534455309767309" /><line x1="451" y1="368" x2="474" y2="441" stroke="purple" stroke-width="1" stroke-opacity="0.23462427527390195" /><line x1="451" y1="368" x2="450" y2="414" stroke="purple" stroke-width="1" stroke-opacity="0.5398913171869064" /><line x1="451" y1="368" x2="410" y2="315" stroke="purple" stroke-width="1" stroke-opacity="0.32992537728996185" /><line x1="451" y1="368" x2="458" y2="343" stroke="purple" stroke-width="1" stroke-opacity="0.7403849002850567" /><line x1="231" y1="407" x2="232" y2="352" stroke="purple" stroke-width="1" stroke-opacity="0.44990909842099736" /><line x1="231" y1="407" x2="269" y2="374" stroke="purple" stroke-width="1" stroke-opacity="0.4967108187135352" /><line x1="231" y1="407" x2="159" y2="462" stroke="purple" stroke-width="1" stroke-opacity="0.0939646806001434" /><line x1="231" y1="407" x2="183" y2="384" stroke="purple" stroke-width="1" stroke-opacity="0.46774066471314946" /><line x1="298" y1="132" x2="276" y2="122" stroke="purple" stroke-width="1" stroke-opacity="0.7583390805281085" /><line x1="298" y1="132" x2="325" y2="82" stroke="purple" stroke-width="1" stroke-opacity="0.43175709419298514" /><line x1="298" y1="132" x2="358" y2="93" stroke="purple" stroke-width="1" stroke-opacity="0.2843883734874062" /><line x1="502" y1="111" x2="435" y2="85" stroke="purple" stroke-width="1" stroke-opacity="0.281320655646762" /><line x1="502" y1="111" x2="468" y2="122" stroke="purple" stroke-width="1" stroke-opacity="0.6426486322958873" /><line x1="502" y1="111" x2="478" y2="171" stroke="purple" stroke-width="1" stroke-opacity="0.3537802231438596" /><line x1="502" y1="111" x2="519" y2="86" stroke="purple" stroke-width="1" stroke-opacity="0.6976756708433804" /><line x1="502" y1="111" x2="543" y2="106" stroke="purple" stroke-width="1" stroke-opacity="0.5869624714387324" /><line x1="502" y1="111" x2="483" y2="101" stroke="purple" stroke-width="1" stroke-opacity="0.7852908944641611" /><line x1="502" y1="111" x2="447" y2="84" stroke="purple" stroke-width="1" stroke-opacity="0.38730105271838444" /><line x1="276" y1="122" x2="325" y2="82" stroke="purple" stroke-width="1" stroke-opacity="0.36746541596526117" /><line x1="276" y1="122" x2="178" y2="133" stroke="purple" stroke-width="1" stroke-opacity="0.013845853834199007" /><line x1="276" y1="122" x2="358" y2="93" stroke="purple" stroke-width="1" stroke-opacity="0.1302299154374187" /><line x1="729" y1="528" x2="704" y2="491" stroke="purple" stroke-width="1" stroke-opacity="0.5534577287646778" /><line x1="729" y1="528" x2="709" y2="476" stroke="purple" stroke-width="1" stroke-opacity="0.4428644689126352" /><line x1="729" y1="528" x2="689" y2="449" stroke="purple" stroke-width="1" stroke-opacity="0.11450578770948483" /><line x1="729" y1="528" x2="634" y2="539" stroke="purple" stroke-width="1" stroke-opacity="0.04365278271958151" /><line x1="435" y1="85" x2="468" y2="122" stroke="purple" stroke-width="1" stroke-opacity="0.5042177897503783" /><line x1="435" y1="85" x2="478" y2="171" stroke="purple" stroke-width="1" stroke-opacity="0.038490769675090464" /><line x1="435" y1="85" x2="393" y2="54" stroke="purple" stroke-width="1" stroke-opacity="0.47798467455447247" /><line x1="435" y1="85" x2="519" y2="86" stroke="purple" stroke-width="1" stroke-opacity="0.15994047829930524" /><line x1="435" y1="85" x2="358" y2="93" stroke="purple" stroke-width="1" stroke-opacity="0.22585531068152376" /><line x1="435" y1="85" x2="483" y2="101" stroke="purple" stroke-width="1" stroke-opacity="0.4940355743730592" /><line x1="435" y1="85" x2="447" y2="84" stroke="purple" stroke-width="1" stroke-opacity="0.8795840542120771" /><line x1="435" y1="85" x2="393" y2="171" stroke="purple" stroke-width="1" stroke-opacity="0.04292111087956807" /><line x1="232" y1="352" x2="269" y2="374" stroke="purple" stroke-width="1" stroke-opacity="0.5695351349993822" /><line x1="232" y1="352" x2="309" y2="311" stroke="purple" stroke-width="1" stroke-opacity="0.12764686049742446" /><line x1="232" y1="352" x2="183" y2="384" stroke="purple" stroke-width="1" stroke-opacity="0.41476500446401876" /><line x1="269" y1="374" x2="309" y2="311" stroke="purple" stroke-width="1" stroke-opacity="0.25374267172777465" /><line x1="269" y1="374" x2="183" y2="384" stroke="purple" stroke-width="1" stroke-opacity="0.13420556712346554" /><line x1="269" y1="374" x2="333" y2="414" stroke="purple" stroke-width="1" stroke-opacity="0.24528150943547178" /><line x1="491" y1="493" x2="487" y2="505" stroke="purple" stroke-width="1" stroke-opacity="0.8735088935932648" /><line x1="491" y1="493" x2="553" y2="490" stroke="purple" stroke-width="1" stroke-opacity="0.3792746178864602" /><line x1="491" y1="493" x2="433" y2="546" stroke="purple" stroke-width="1" stroke-opacity="0.21431558498338532" /><line x1="491" y1="493" x2="480" y2="522" stroke="purple" stroke-width="1" stroke-opacity="0.6898387516145835" /><line x1="491" y1="493" x2="474" y2="441" stroke="purple" stroke-width="1" stroke-opacity="0.45291682533640276" /><line x1="491" y1="493" x2="564" y2="425" stroke="purple" stroke-width="1" stroke-opacity="0.0023527677580617024" /><line x1="491" y1="493" x2="450" y2="414" stroke="purple" stroke-width="1" stroke-opacity="0.10994382199773478" /><line x1="491" y1="493" x2="529" y2="451" stroke="purple" stroke-width="1" stroke-opacity="0.43360790965974816" /><line x1="351" y1="308" x2="388" y2="337" stroke="purple" stroke-width="1" stroke-opacity="0.5298936290582736" /><line x1="351" y1="308" x2="309" y2="311" stroke="purple" stroke-width="1" stroke-opacity="0.578929934571454" /><line x1="351" y1="308" x2="410" y2="315" stroke="purple" stroke-width="1" stroke-opacity="0.405861968899482" /><line x1="351" y1="308" x2="426" y2="243" stroke="purple" stroke-width="1" stroke-opacity="0.007528337936039575" /><line x1="210" y1="233" x2="145" y2="183" stroke="purple" stroke-width="1" stroke-opacity="0.17993902665716377" /><line x1="210" y1="233" x2="154" y2="212" stroke="purple" stroke-width="1" stroke-opacity="0.4019197378277728" /><line x1="487" y1="505" x2="553" y2="490" stroke="purple" stroke-width="1" stroke-opacity="0.32316914963929133" /><line x1="487" y1="505" x2="433" y2="546" stroke="purple" stroke-width="1" stroke-opacity="0.3219882006926429" /><line x1="487" y1="505" x2="480" y2="522" stroke="purple" stroke-width="1" stroke-opacity="0.8161522368914976" /><line x1="487" y1="505" x2="474" y2="441" stroke="purple" stroke-width="1" stroke-opacity="0.3469303253097722" /><line x1="487" y1="505" x2="450" y2="414" stroke="purple" stroke-width="1" stroke-opacity="0.017655864780575015" /><line x1="487" y1="505" x2="529" y2="451" stroke="purple" stroke-width="1" stroke-opacity="0.31589474494051717" /><line x1="474" y1="336" x2="388" y2="337" stroke="purple" stroke-width="1" stroke-opacity="0.1399418624302191" /><line x1="474" y1="336" x2="538" y2="313" stroke="purple" stroke-width="1" stroke-opacity="0.31992647456322787" /><line x1="474" y1="336" x2="427" y2="393" stroke="purple" stroke-width="1" stroke-opacity="0.2612172173094449" /><line x1="474" y1="336" x2="504" y2="262" stroke="purple" stroke-width="1" stroke-opacity="0.2015014088929148" /><line x1="474" y1="336" x2="450" y2="414" stroke="purple" stroke-width="1" stroke-opacity="0.1839117694758734" /><line x1="474" y1="336" x2="410" y2="315" stroke="purple" stroke-width="1" stroke-opacity="0.3264274352380435" /><line x1="474" y1="336" x2="458" y2="343" stroke="purple" stroke-width="1" stroke-opacity="0.8253575080342702" /><line x1="474" y1="336" x2="495" y2="273" stroke="purple" stroke-width="1" stroke-opacity="0.33592169136464034" /><line x1="704" y1="491" x2="709" y2="476" stroke="purple" stroke-width="1" stroke-opacity="0.841886116991581" /><line x1="704" y1="491" x2="673" y2="422" stroke="purple" stroke-width="1" stroke-opacity="0.24356097403690224" /><line x1="704" y1="491" x2="689" y2="449" stroke="purple" stroke-width="1" stroke-opacity="0.5540179375804448" /><line x1="704" y1="491" x2="634" y2="539" stroke="purple" stroke-width="1" stroke-opacity="0.15123619304308222" /><line x1="388" y1="337" x2="427" y2="393" stroke="purple" stroke-width="1" stroke-opacity="0.31757784326708727" /><line x1="388" y1="337" x2="309" y2="311" stroke="purple" stroke-width="1" stroke-opacity="0.16831496346273012" /><line x1="388" y1="337" x2="450" y2="414" stroke="purple" stroke-width="1" stroke-opacity="0.011415152857378708" /><line x1="388" y1="337" x2="410" y2="315" stroke="purple" stroke-width="1" stroke-opacity="0.6888730162779191" /><line x1="388" y1="337" x2="458" y2="343" stroke="purple" stroke-width="1" stroke-opacity="0.29743327718998813" /><line x1="388" y1="337" x2="333" y2="414" stroke="purple" stroke-width="1" stroke-opacity="0.053744220625311145" /><line x1="293" y1="516" x2="271" y2="534" stroke="purple" stroke-width="1" stroke-opacity="0.7157465919289621" /><line x1="293" y1="516" x2="377" y2="549" stroke="purple" stroke-width="1" stroke-opacity="0.09750346261052056" /><line x1="468" y1="122" x2="478" y2="171" stroke="purple" stroke-width="1" stroke-opacity="0.49990000999800055" /><line x1="468" y1="122" x2="519" y2="86" stroke="purple" stroke-width="1" stroke-opacity="0.3757404385994557" /><line x1="468" y1="122" x2="543" y2="106" stroke="purple" stroke-width="1" stroke-opacity="0.23312321719848628" /><line x1="468" y1="122" x2="483" y2="101" stroke="purple" stroke-width="1" stroke-opacity="0.7419302419887213" /><line x1="468" y1="122" x2="447" y2="84" stroke="purple" stroke-width="1" stroke-opacity="0.5658341330781518" /><line x1="468" y1="122" x2="393" y2="171" stroke="purple" stroke-width="1" stroke-opacity="0.1041205438229984" /><line x1="122" y1="290" x2="109" y2="311" stroke="purple" stroke-width="1" stroke-opacity="0.7530182192954307" /><line x1="122" y1="290" x2="74" y2="216" stroke="purple" stroke-width="1" stroke-opacity="0.11795691715200218" /><line x1="122" y1="290" x2="92" y2="278" stroke="purple" stroke-width="1" stroke-opacity="0.6768901115719298" /><line x1="122" y1="290" x2="154" y2="212" stroke="purple" stroke-width="1" stroke-opacity="0.1569104436656804" /><line x1="709" y1="476" x2="673" y2="422" stroke="purple" stroke-width="1" stroke-opacity="0.3510007704164819" /><line x1="709" y1="476" x2="703" y2="388" stroke="purple" stroke-width="1" stroke-opacity="0.11795691715200218" /><line x1="709" y1="476" x2="689" y2="449" stroke="purple" stroke-width="1" stroke-opacity="0.6639940476717712" /><line x1="709" y1="476" x2="634" y2="539" stroke="purple" stroke-width="1" stroke-opacity="0.02051033696112947" /><line x1="159" y1="462" x2="67" y2="445" stroke="purple" stroke-width="1" stroke-opacity="0.06442531030387533" /><line x1="159" y1="462" x2="86" y2="479" stroke="purple" stroke-width="1" stroke-opacity="0.2504668119422597" /><line x1="159" y1="462" x2="111" y2="470" stroke="purple" stroke-width="1" stroke-opacity="0.5133789975761425" /><line x1="159" y1="462" x2="183" y2="384" stroke="purple" stroke-width="1" stroke-opacity="0.1839117694758734" /><line x1="159" y1="462" x2="98" y2="471" stroke="purple" stroke-width="1" stroke-opacity="0.38339639962128014" /><line x1="109" y1="311" x2="57" y2="381" stroke="purple" stroke-width="1" stroke-opacity="0.12799082573633447" /><line x1="109" y1="311" x2="92" y2="278" stroke="purple" stroke-width="1" stroke-opacity="0.6287857761345883" /><line x1="673" y1="279" x2="693" y2="316" stroke="purple" stroke-width="1" stroke-opacity="0.5794051831037381" /><line x1="673" y1="279" x2="728" y2="235" stroke="purple" stroke-width="1" stroke-opacity="0.29565633388238666" /><line x1="673" y1="279" x2="630" y2="260" stroke="purple" stroke-width="1" stroke-opacity="0.5298936290582736" /><line x1="693" y1="316" x2="728" y2="235" stroke="purple" stroke-width="1" stroke-opacity="0.1176168632617689" /><line x1="693" y1="316" x2="703" y2="388" stroke="purple" stroke-width="1" stroke-opacity="0.27308872618455016" /><line x1="693" y1="316" x2="630" y2="260" stroke="purple" stroke-width="1" stroke-opacity="0.15708837948453935" /><line x1="67" y1="445" x2="57" y2="381" stroke="purple" stroke-width="1" stroke-opacity="0.35223461037193415" /><line x1="67" y1="445" x2="86" y2="479" stroke="purple" stroke-width="1" stroke-opacity="0.610513158116991" /><line x1="67" y1="445" x2="111" y2="470" stroke="purple" stroke-width="1" stroke-opacity="0.49393676284480026" /><line x1="67" y1="445" x2="98" y2="471" stroke="purple" stroke-width="1" stroke-opacity="0.5954014335171218" /><line x1="673" y1="422" x2="703" y2="388" stroke="purple" stroke-width="1" stroke-opacity="0.5465686380498147" /><line x1="673" y1="422" x2="689" y2="449" stroke="purple" stroke-width="1" stroke-opacity="0.6861529034704956" /><line x1="565" y1="403" x2="538" y2="313" stroke="purple" stroke-width="1" stroke-opacity="0.060372414198050395" /><line x1="565" y1="403" x2="553" y2="490" stroke="purple" stroke-width="1" stroke-opacity="0.1217631299017331" /><line x1="565" y1="403" x2="588" y2="339" stroke="purple" stroke-width="1" stroke-opacity="0.31992647456322787" /><line x1="565" y1="403" x2="474" y2="441" stroke="purple" stroke-width="1" stroke-opacity="0.013845853834199007" /><line x1="565" y1="403" x2="564" y2="425" stroke="purple" stroke-width="1" stroke-opacity="0.7797728445445476" /><line x1="565" y1="403" x2="529" y2="451" stroke="purple" stroke-width="1" stroke-opacity="0.4" /><line x1="538" y1="313" x2="570" y2="223" stroke="purple" stroke-width="1" stroke-opacity="0.044803685099235824" /><line x1="538" y1="313" x2="588" y2="339" stroke="purple" stroke-width="1" stroke-opacity="0.43643988785578514" /><line x1="538" y1="313" x2="504" y2="262" stroke="purple" stroke-width="1" stroke-opacity="0.38705628317112184" /><line x1="538" y1="313" x2="524" y2="248" stroke="purple" stroke-width="1" stroke-opacity="0.33509399160482845" /><line x1="538" y1="313" x2="458" y2="343" stroke="purple" stroke-width="1" stroke-opacity="0.1455996254682469" /><line x1="538" y1="313" x2="571" y2="277" stroke="purple" stroke-width="1" stroke-opacity="0.5116353821170088" /><line x1="538" y1="313" x2="495" y2="273" stroke="purple" stroke-width="1" stroke-opacity="0.41271812559895904" /><line x1="538" y1="313" x2="568" y2="299" stroke="purple" stroke-width="1" stroke-opacity="0.668941092855063" /><line x1="570" y1="223" x2="556" y2="213" stroke="purple" stroke-width="1" stroke-opacity="0.8279534946591475" /><line x1="570" y1="223" x2="504" y2="262" stroke="purple" stroke-width="1" stroke-opacity="0.23338405964916176" /><line x1="570" y1="223" x2="630" y2="260" stroke="purple" stroke-width="1" stroke-opacity="0.29508865805691575" /><line x1="570" y1="223" x2="524" y2="248" stroke="purple" stroke-width="1" stroke-opacity="0.476454395491663" /><line x1="570" y1="223" x2="571" y2="277" stroke="purple" stroke-width="1" stroke-opacity="0.45990741534436896" /><line x1="570" y1="223" x2="495" y2="273" stroke="purple" stroke-width="1" stroke-opacity="0.09861218113400272" /><line x1="570" y1="223" x2="568" y2="299" stroke="purple" stroke-width="1" stroke-opacity="0.2397368876500715" /><line x1="57" y1="381" x2="98" y2="471" stroke="purple" stroke-width="1" stroke-opacity="0.011010616841616527" /><line x1="145" y1="183" x2="74" y2="216" stroke="purple" stroke-width="1" stroke-opacity="0.21705683475746473" /><line x1="145" y1="183" x2="178" y2="133" stroke="purple" stroke-width="1" stroke-opacity="0.40091736796999367" /><line x1="145" y1="183" x2="154" y2="212" stroke="purple" stroke-width="1" stroke-opacity="0.6963554709862205" /><line x1="728" y1="235" x2="735" y2="171" stroke="purple" stroke-width="1" stroke-opacity="0.3561832558872051" /><line x1="478" y1="171" x2="556" y2="213" stroke="purple" stroke-width="1" stroke-opacity="0.11411061638599596" /><line x1="478" y1="171" x2="504" y2="262" stroke="purple" stroke-width="1" stroke-opacity="0.053585714393532546" /><line x1="478" y1="171" x2="519" y2="86" stroke="purple" stroke-width="1" stroke-opacity="0.05628394100767797" /><line x1="478" y1="171" x2="543" y2="106" stroke="purple" stroke-width="1" stroke-opacity="0.08076118445748814" /><line x1="478" y1="171" x2="524" y2="248" stroke="purple" stroke-width="1" stroke-opacity="0.10306076014035381" /><line x1="478" y1="171" x2="483" y2="101" stroke="purple" stroke-width="1" stroke-opacity="0.29821655761909005" /><line x1="478" y1="171" x2="447" y2="84" stroke="purple" stroke-width="1" stroke-opacity="0.07642000887849465" /><line x1="478" y1="171" x2="393" y2="171" stroke="purple" stroke-width="1" stroke-opacity="0.15000000000000002" /><line x1="478" y1="171" x2="426" y2="243" stroke="purple" stroke-width="1" stroke-opacity="0.11185586755301924" /><line x1="393" y1="54" x2="325" y2="82" stroke="purple" stroke-width="1" stroke-opacity="0.2646089475659906" /><line x1="393" y1="54" x2="358" y2="93" stroke="purple" stroke-width="1" stroke-opacity="0.47597709973704394" /><line x1="393" y1="54" x2="447" y2="84" stroke="purple" stroke-width="1" stroke-opacity="0.38226219154078" /><line x1="556" y1="213" x2="504" y2="262" stroke="purple" stroke-width="1" stroke-opacity="0.28550717288415006" /><line x1="556" y1="213" x2="630" y2="260" stroke="purple" stroke-width="1" stroke-opacity="0.12335868224227542" /><line x1="556" y1="213" x2="524" y2="248" stroke="purple" stroke-width="1" stroke-opacity="0.5257637719448249" /><line x1="556" y1="213" x2="571" y2="277" stroke="purple" stroke-width="1" stroke-opacity="0.3426568628182082" /><line x1="556" y1="213" x2="495" y2="273" stroke="purple" stroke-width="1" stroke-opacity="0.14437157597471084" /><line x1="556" y1="213" x2="568" y2="299" stroke="purple" stroke-width="1" stroke-opacity="0.13166826615630356" /><line x1="553" y1="490" x2="480" y2="522" stroke="purple" stroke-width="1" stroke-opacity="0.202942912960433" /><line x1="553" y1="490" x2="474" y2="441" stroke="purple" stroke-width="1" stroke-opacity="0.07037642026463198" /><line x1="553" y1="490" x2="564" y2="425" stroke="purple" stroke-width="1" stroke-opacity="0.34075801104601966" /><line x1="553" y1="490" x2="634" y2="539" stroke="purple" stroke-width="1" stroke-opacity="0.05332159631689071" /><line x1="553" y1="490" x2="529" y2="451" stroke="purple" stroke-width="1" stroke-opacity="0.5420698743257876" /><line x1="433" y1="546" x2="480" y2="522" stroke="purple" stroke-width="1" stroke-opacity="0.4722690079216495" /><line x1="433" y1="546" x2="377" y2="549" stroke="purple" stroke-width="1" stroke-opacity="0.4391970042876019" /><line x1="427" y1="393" x2="474" y2="441" stroke="purple" stroke-width="1" stroke-opacity="0.3282113427572626" /><line x1="427" y1="393" x2="450" y2="414" stroke="purple" stroke-width="1" stroke-opacity="0.6885517699520513" /><line x1="427" y1="393" x2="410" y2="315" stroke="purple" stroke-width="1" stroke-opacity="0.2016892835493188" /><line x1="427" y1="393" x2="458" y2="343" stroke="purple" stroke-width="1" stroke-opacity="0.41169735679669084" /><line x1="427" y1="393" x2="333" y2="414" stroke="purple" stroke-width="1" stroke-opacity="0.03682815655771998" /><line x1="480" y1="522" x2="474" y2="441" stroke="purple" stroke-width="1" stroke-opacity="0.187780817759147" /><line x1="480" y1="522" x2="529" y2="451" stroke="purple" stroke-width="1" stroke-opacity="0.13732972695241197" /><line x1="86" y1="479" x2="111" y2="470" stroke="purple" stroke-width="1" stroke-opacity="0.7342933948882715" /><line x1="86" y1="479" x2="98" y2="471" stroke="purple" stroke-width="1" stroke-opacity="0.8557779489814404" /><line x1="588" y1="339" x2="630" y2="260" stroke="purple" stroke-width="1" stroke-opacity="0.10529334416245673" /><line x1="588" y1="339" x2="564" y2="425" stroke="purple" stroke-width="1" stroke-opacity="0.1071394285780114" /><line x1="588" y1="339" x2="571" y2="277" stroke="purple" stroke-width="1" stroke-opacity="0.3571158735821828" /><line x1="588" y1="339" x2="568" y2="299" stroke="purple" stroke-width="1" stroke-opacity="0.552786404500042" /><line x1="504" y1="262" x2="524" y2="248" stroke="purple" stroke-width="1" stroke-opacity="0.7558688876853259" /><line x1="504" y1="262" x2="458" y2="343" stroke="purple" stroke-width="1" stroke-opacity="0.06849584005223042" /><line x1="504" y1="262" x2="571" y2="277" stroke="purple" stroke-width="1" stroke-opacity="0.31341424424912523" /><line x1="504" y1="262" x2="495" y2="273" stroke="purple" stroke-width="1" stroke-opacity="0.857873295964481" /><line x1="504" y1="262" x2="426" y2="243" stroke="purple" stroke-width="1" stroke-opacity="0.197192426542948" /><line x1="504" y1="262" x2="568" y2="299" stroke="purple" stroke-width="1" stroke-opacity="0.2607436168689512" /><line x1="519" y1="86" x2="543" y2="106" stroke="purple" stroke-width="1" stroke-opacity="0.6875900129637338" /><line x1="519" y1="86" x2="483" y2="101" stroke="purple" stroke-width="1" stroke-opacity="0.61" /><line x1="519" y1="86" x2="447" y2="84" stroke="purple" stroke-width="1" stroke-opacity="0.2797222757852357" /><line x1="474" y1="441" x2="564" y2="425" stroke="purple" stroke-width="1" stroke-opacity="0.08588840943788478" /><line x1="474" y1="441" x2="450" y2="414" stroke="purple" stroke-width="1" stroke-opacity="0.6387521626362311" /><line x1="474" y1="441" x2="458" y2="343" stroke="purple" stroke-width="1" stroke-opacity="0.007024673015487259" /><line x1="474" y1="441" x2="529" y2="451" stroke="purple" stroke-width="1" stroke-opacity="0.44098300562505255" /><line x1="703" y1="388" x2="689" y2="449" stroke="purple" stroke-width="1" stroke-opacity="0.37414059086724594" /><line x1="325" y1="82" x2="358" y2="93" stroke="purple" stroke-width="1" stroke-opacity="0.6521494573814783" /><line x1="735" y1="171" x2="750" y2="93" stroke="purple" stroke-width="1" stroke-opacity="0.20570786230757643" /><line x1="543" y1="106" x2="483" y2="101" stroke="purple" stroke-width="1" stroke-opacity="0.3979202710603853" /><line x1="543" y1="106" x2="447" y2="84" stroke="purple" stroke-width="1" stroke-opacity="0.015114219820389518" /><line x1="74" y1="216" x2="92" y2="278" stroke="purple" stroke-width="1" stroke-opacity="0.3543995043372411" /><line x1="74" y1="216" x2="154" y2="212" stroke="purple" stroke-width="1" stroke-opacity="0.19900062421996845" /><line x1="630" y1="260" x2="571" y2="277" stroke="purple" stroke-width="1" stroke-opacity="0.3859967426796499" /><line x1="630" y1="260" x2="568" y2="299" stroke="purple" stroke-width="1" stroke-opacity="0.2675383969108005" /><line x1="524" y1="248" x2="571" y2="277" stroke="purple" stroke-width="1" stroke-opacity="0.44773194914063696" /><line x1="524" y1="248" x2="495" y2="273" stroke="purple" stroke-width="1" stroke-opacity="0.6171162056184671" /><line x1="524" y1="248" x2="426" y2="243" stroke="purple" stroke-width="1" stroke-opacity="0.018725318781738887" /><line x1="524" y1="248" x2="568" y2="299" stroke="purple" stroke-width="1" stroke-opacity="0.3264274352380435" /><line x1="178" y1="133" x2="154" y2="212" stroke="purple" stroke-width="1" stroke-opacity="0.17434874190127947" /><line x1="111" y1="470" x2="98" y2="471" stroke="purple" stroke-width="1" stroke-opacity="0.869615951895947" /><line x1="564" y1="425" x2="529" y2="451" stroke="purple" stroke-width="1" stroke-opacity="0.5639954128681672" /><line x1="358" y1="93" x2="447" y2="84" stroke="purple" stroke-width="1" stroke-opacity="0.1054610125880483" /><line x1="358" y1="93" x2="393" y2="171" stroke="purple" stroke-width="1" stroke-opacity="0.14507310254034" /><line x1="483" y1="101" x2="447" y2="84" stroke="purple" stroke-width="1" stroke-opacity="0.6018794152521123" /><line x1="450" y1="414" x2="458" y2="343" stroke="purple" stroke-width="1" stroke-opacity="0.28550717288415006" /><line x1="450" y1="414" x2="529" y2="451" stroke="purple" stroke-width="1" stroke-opacity="0.12764686049742446" /><line x1="92" y1="278" x2="154" y2="212" stroke="purple" stroke-width="1" stroke-opacity="0.09446148618625827" /><line x1="410" y1="315" x2="458" y2="343" stroke="purple" stroke-width="1" stroke-opacity="0.44430224042200783" /><line x1="410" y1="315" x2="495" y2="273" stroke="purple" stroke-width="1" stroke-opacity="0.0518966301082987" /><line x1="410" y1="315" x2="426" y2="243" stroke="purple" stroke-width="1" stroke-opacity="0.262436443416569" /><line x1="458" y1="343" x2="495" y2="273" stroke="purple" stroke-width="1" stroke-opacity="0.20822983132729733" /><line x1="571" y1="277" x2="495" y2="273" stroke="purple" stroke-width="1" stroke-opacity="0.23894809638238212" /><line x1="571" y1="277" x2="568" y2="299" stroke="purple" stroke-width="1" stroke-opacity="0.7779639668882548" /><line x1="393" y1="171" x2="426" y2="243" stroke="purple" stroke-width="1" stroke-opacity="0.2079772730533549" /><line x1="495" y1="273" x2="426" y2="243" stroke="purple" stroke-width="1" stroke-opacity="0.24760382776093282" /><line x1="495" y1="273" x2="568" y2="299" stroke="purple" stroke-width="1" stroke-opacity="0.22508064935762506" /><circle cx="466" cy="425" r="2" fill="cyan" /><circle cx="240" cy="58" r="2" fill="cyan" /><circle cx="487" cy="385" r="2" fill="cyan" /><circle cx="272" cy="173" r="2" fill="cyan" /><circle cx="319" cy="75" r="2" fill="cyan" /><circle cx="364" cy="153" r="2" fill="cyan" /><circle cx="493" cy="478" r="2" fill="cyan" /><circle cx="313" cy="108" r="2" fill="cyan" /><circle cx="556" cy="516" r="2" fill="cyan" /><circle cx="246" cy="541" r="2" fill="cyan" /><circle cx="112" cy="536" r="2" fill="cyan" /><circle cx="81" cy="134" r="2" fill="cyan" /><circle cx="610" cy="259" r="2" fill="cyan" /><circle cx="147" cy="534" r="2" fill="cyan" /><circle cx="733" cy="275" r="2" fill="cyan" /><circle cx="403" cy="51" r="2" fill="cyan" /><circle cx="137" cy="459" r="2" fill="cyan" /><circle cx="388" cy="224" r="2" fill="cyan" /><circle cx="206" cy="133" r="2" fill="cyan" /><circle cx="453" cy="429" r="2" fill="cyan" /><circle cx="134" cy="173" r="2" fill="cyan" /><circle cx="54" cy="490" r="2" fill="cyan" /><circle cx="451" cy="368" r="2" fill="cyan" /><circle cx="231" cy="407" r="2" fill="cyan" /><circle cx="298" cy="132" r="2" fill="cyan" /><circle cx="502" cy="111" r="2" fill="cyan" /><circle cx="276" cy="122" r="2" fill="cyan" /><circle cx="729" cy="528" r="2" fill="cyan" /><circle cx="435" cy="85" r="2" fill="cyan" /><circle cx="232" cy="352" r="2" fill="cyan" /><circle cx="269" cy="374" r="2" fill="cyan" /><circle cx="491" cy="493" r="2" fill="cyan" /><circle cx="351" cy="308" r="2" fill="cyan" /><circle cx="210" cy="233" r="2" fill="cyan" /><circle cx="487" cy="505" r="2" fill="cyan" /><circle cx="474" cy="336" r="2" fill="cyan" /><circle cx="704" cy="491" r="2" fill="cyan" /><circle cx="647" cy="122" r="2" fill="cyan" /><circle cx="388" cy="337" r="2" fill="cyan" /><circle cx="293" cy="516" r="2" fill="cyan" /><circle cx="468" cy="122" r="2" fill="cyan" /><circle cx="122" cy="290" r="2" fill="cyan" /><circle cx="709" cy="476" r="2" fill="cyan" /><circle cx="159" cy="462" r="2" fill="cyan" /><circle cx="109" cy="311" r="2" fill="cyan" /><circle cx="673" cy="279" r="2" fill="cyan" /><circle cx="693" cy="316" r="2" fill="cyan" /><circle cx="67" cy="445" r="2" fill="cyan" /><circle cx="673" cy="422" r="2" fill="cyan" /><circle cx="565" cy="403" r="2" fill="cyan" /><circle cx="538" cy="313" r="2" fill="cyan" /><circle cx="570" cy="223" r="2" fill="cyan" /><circle cx="271" cy="534" r="2" fill="cyan" /><circle cx="57" cy="381" r="2" fill="cyan" /><circle cx="145" cy="183" r="2" fill="cyan" /><circle cx="728" cy="235" r="2" fill="cyan" /><circle cx="478" cy="171" r="2" fill="cyan" /><circle cx="393" cy="54" r="2" fill="cyan" /><circle cx="556" cy="213" r="2" fill="cyan" /><circle cx="553" cy="490" r="2" fill="cyan" /><circle cx="433" cy="546" r="2" fill="cyan" /><circle cx="427" cy="393" r="2" fill="cyan" /><circle cx="480" cy="522" r="2" fill="cyan" /><circle cx="86" cy="479" r="2" fill="cyan" /><circle cx="588" cy="339" r="2" fill="cyan" /><circle cx="309" cy="311" r="2" fill="cyan" /><circle cx="504" cy="262" r="2" fill="cyan" /><circle cx="519" cy="86" r="2" fill="cyan" /><circle cx="474" cy="441" r="2" fill="cyan" /><circle cx="703" cy="388" r="2" fill="cyan" /><circle cx="325" cy="82" r="2" fill="cyan" /><circle cx="735" cy="171" r="2" fill="cyan" /><circle cx="750" cy="93" r="2" fill="cyan" /><circle cx="543" cy="106" r="2" fill="cyan" /><circle cx="74" cy="216" r="2" fill="cyan" /><circle cx="630" cy="260" r="2" fill="cyan" /><circle cx="524" cy="248" r="2" fill="cyan" /><circle cx="178" cy="133" r="2" fill="cyan" /><circle cx="689" cy="449" r="2" fill="cyan" /><circle cx="111" cy="470" r="2" fill="cyan" /><circle cx="564" cy="425" r="2" fill="cyan" /><circle cx="358" cy="93" r="2" fill="cyan" /><circle cx="483" cy="101" r="2" fill="cyan" /><circle cx="450" cy="414" r="2" fill="cyan" /><circle cx="92" cy="278" r="2" fill="cyan" /><circle cx="410" cy="315" r="2" fill="cyan" /><circle cx="154" cy="212" r="2" fill="cyan" /><circle cx="447" cy="84" r="2" fill="cyan" /><circle cx="634" cy="539" r="2" fill="cyan" /><circle cx="458" cy="343" r="2" fill="cyan" /><circle cx="571" cy="277" r="2" fill="cyan" /><circle cx="183" cy="384" r="2" fill="cyan" /><circle cx="393" cy="171" r="2" fill="cyan" /><circle cx="495" cy="273" r="2" fill="cyan" /><circle cx="426" cy="243" r="2" fill="cyan" /><circle cx="568" cy="299" r="2" fill="cyan" /><circle cx="98" cy="471" r="2" fill="cyan" /><circle cx="529" cy="451" r="2" fill="cyan" /><circle cx="377" cy="549" r="2" fill="cyan" /><circle cx="333" cy="414" r="2" fill="cyan" /></svg>