<svg xmlns="http://www.w3.org/2000/svg" width="760" height="540" viewBox="0 0 760 540">
<rect width="100%" height="100%" fill="#fafafa"/>
<rect x="92" y="58" width="640" height="404" fill="white" stroke="#222" stroke-width="1"/>
<line x1="92.00" y1="58" x2="92.00" y2="462" stroke="#ddd"/>
<line x1="92" y1="462.00" x2="732" y2="462.00" stroke="#ddd"/>
<text x="92.00" y="484" text-anchor="middle" font-size="12">-18</text>
<text x="82" y="466.00" text-anchor="end" font-size="12">-18</text>
<line x1="220.00" y1="58" x2="220.00" y2="462" stroke="#ddd"/>
<line x1="92" y1="381.20" x2="732" y2="381.20" stroke="#ddd"/>
<text x="220.00" y="484" text-anchor="middle" font-size="12">2.2e+02</text>
<text x="82" y="385.20" text-anchor="end" font-size="12">2.2e+02</text>
<line x1="348.00" y1="58" x2="348.00" y2="462" stroke="#ddd"/>
<line x1="92" y1="300.40" x2="732" y2="300.40" stroke="#ddd"/>
<text x="348.00" y="484" text-anchor="middle" font-size="12">4.6e+02</text>
<text x="82" y="304.40" text-anchor="end" font-size="12">4.6e+02</text>
<line x1="476.00" y1="58" x2="476.00" y2="462" stroke="#ddd"/>
<line x1="92" y1="219.60" x2="732" y2="219.60" stroke="#ddd"/>
<text x="476.00" y="484" text-anchor="middle" font-size="12">7e+02</text>
<text x="82" y="223.60" text-anchor="end" font-size="12">7e+02</text>
<line x1="604.00" y1="58" x2="604.00" y2="462" stroke="#ddd"/>
<line x1="92" y1="138.80" x2="732" y2="138.80" stroke="#ddd"/>
<text x="604.00" y="484" text-anchor="middle" font-size="12">9.3e+02</text>
<text x="82" y="142.80" text-anchor="end" font-size="12">9.3e+02</text>
<line x1="732.00" y1="58" x2="732.00" y2="462" stroke="#ddd"/>
<line x1="92" y1="58.00" x2="732" y2="58.00" stroke="#ddd"/>
<text x="732.00" y="484" text-anchor="middle" font-size="12">1.2e+03</text>
<text x="82" y="62.00" text-anchor="end" font-size="12">1.2e+03</text>
<text x="380.0" y="28" text-anchor="middle" font-size="20" font-weight="600">F1. 4D link abundance vs area law</text>
<text x="380.0" y="516" text-anchor="middle" font-size="15">pi sqrt(6) sqrt(rho) R^2</text>
<text x="24" y="270.0" text-anchor="middle" font-size="15" transform="rotate(-90 24 270.0)">measured v_link</text>
<polyline points="92.00,462.00 732.00,58.00" fill="none" stroke="#111" stroke-width="2" stroke-dasharray="6 4"/>
<line x1="148.36" y1="434.85" x2="148.36" y2="433.43" stroke="#1f77b4" stroke-width="1.3"/>
<line x1="143.36" y1="434.85" x2="153.36" y2="434.85" stroke="#1f77b4" stroke-width="1.3"/>
<line x1="143.36" y1="433.43" x2="153.36" y2="433.43" stroke="#1f77b4" stroke-width="1.3"/>
<circle cx="148.36" cy="434.14" r="5" fill="#1f77b4" stroke="white" stroke-width="1"/>
<line x1="207.00" y1="402.17" x2="207.00" y2="399.26" stroke="#1f77b4" stroke-width="1.3"/>
<line x1="202.00" y1="402.17" x2="212.00" y2="402.17" stroke="#1f77b4" stroke-width="1.3"/>
<line x1="202.00" y1="399.26" x2="212.00" y2="399.26" stroke="#1f77b4" stroke-width="1.3"/>
<circle cx="207.00" cy="400.72" r="5" fill="#1f77b4" stroke="white" stroke-width="1"/>
<line x1="289.10" y1="351.30" x2="289.10" y2="346.50" stroke="#1f77b4" stroke-width="1.3"/>
<line x1="284.10" y1="351.30" x2="294.10" y2="351.30" stroke="#1f77b4" stroke-width="1.3"/>
<line x1="284.10" y1="346.50" x2="294.10" y2="346.50" stroke="#1f77b4" stroke-width="1.3"/>
<circle cx="289.10" cy="348.90" r="5" fill="#1f77b4" stroke="white" stroke-width="1"/>
<line x1="394.66" y1="286.24" x2="394.66" y2="280.88" stroke="#1f77b4" stroke-width="1.3"/>
<line x1="389.66" y1="286.24" x2="399.66" y2="286.24" stroke="#1f77b4" stroke-width="1.3"/>
<line x1="389.66" y1="280.88" x2="399.66" y2="280.88" stroke="#1f77b4" stroke-width="1.3"/>
<circle cx="394.66" cy="283.56" r="5" fill="#1f77b4" stroke="white" stroke-width="1"/>
<line x1="167.79" y1="424.08" x2="167.79" y2="422.39" stroke="#d62728" stroke-width="1.3"/>
<line x1="162.79" y1="424.08" x2="172.79" y2="424.08" stroke="#d62728" stroke-width="1.3"/>
<line x1="162.79" y1="422.39" x2="172.79" y2="422.39" stroke="#d62728" stroke-width="1.3"/>
<circle cx="167.79" cy="423.23" r="5" fill="#d62728" stroke="white" stroke-width="1"/>
<line x1="250.73" y1="373.29" x2="250.73" y2="370.01" stroke="#d62728" stroke-width="1.3"/>
<line x1="245.73" y1="373.29" x2="255.73" y2="373.29" stroke="#d62728" stroke-width="1.3"/>
<line x1="245.73" y1="370.01" x2="255.73" y2="370.01" stroke="#d62728" stroke-width="1.3"/>
<circle cx="250.73" cy="371.65" r="5" fill="#d62728" stroke="white" stroke-width="1"/>
<line x1="366.83" y1="306.92" x2="366.83" y2="301.94" stroke="#d62728" stroke-width="1.3"/>
<line x1="361.83" y1="306.92" x2="371.83" y2="306.92" stroke="#d62728" stroke-width="1.3"/>
<line x1="361.83" y1="301.94" x2="371.83" y2="301.94" stroke="#d62728" stroke-width="1.3"/>
<circle cx="366.83" cy="304.43" r="5" fill="#d62728" stroke="white" stroke-width="1"/>
<line x1="516.11" y1="215.10" x2="516.11" y2="207.33" stroke="#d62728" stroke-width="1.3"/>
<line x1="511.11" y1="215.10" x2="521.11" y2="215.10" stroke="#d62728" stroke-width="1.3"/>
<line x1="511.11" y1="207.33" x2="521.11" y2="207.33" stroke="#d62728" stroke-width="1.3"/>
<circle cx="516.11" cy="211.22" r="5" fill="#d62728" stroke="white" stroke-width="1"/>
<line x1="195.28" y1="408.95" x2="195.28" y2="406.16" stroke="#2ca02c" stroke-width="1.3"/>
<line x1="190.28" y1="408.95" x2="200.28" y2="408.95" stroke="#2ca02c" stroke-width="1.3"/>
<line x1="190.28" y1="406.16" x2="200.28" y2="406.16" stroke="#2ca02c" stroke-width="1.3"/>
<circle cx="195.28" cy="407.55" r="5" fill="#2ca02c" stroke="white" stroke-width="1"/>
<line x1="312.56" y1="339.03" x2="312.56" y2="334.30" stroke="#2ca02c" stroke-width="1.3"/>
<line x1="307.56" y1="339.03" x2="317.56" y2="339.03" stroke="#2ca02c" stroke-width="1.3"/>
<line x1="307.56" y1="334.30" x2="317.56" y2="334.30" stroke="#2ca02c" stroke-width="1.3"/>
<circle cx="312.56" cy="336.67" r="5" fill="#2ca02c" stroke="white" stroke-width="1"/>
<line x1="476.75" y1="233.75" x2="476.75" y2="228.63" stroke="#2ca02c" stroke-width="1.3"/>
<line x1="471.75" y1="233.75" x2="481.75" y2="233.75" stroke="#2ca02c" stroke-width="1.3"/>
<line x1="471.75" y1="228.63" x2="481.75" y2="228.63" stroke="#2ca02c" stroke-width="1.3"/>
<circle cx="476.75" cy="231.19" r="5" fill="#2ca02c" stroke="white" stroke-width="1"/>
<line x1="687.86" y1="99.85" x2="687.86" y2="91.13" stroke="#2ca02c" stroke-width="1.3"/>
<line x1="682.86" y1="99.85" x2="692.86" y2="99.85" stroke="#2ca02c" stroke-width="1.3"/>
<line x1="682.86" y1="91.13" x2="692.86" y2="91.13" stroke="#2ca02c" stroke-width="1.3"/>
<circle cx="687.86" cy="95.49" r="5" fill="#2ca02c" stroke="white" stroke-width="1"/>
<circle cx="604" cy="82" r="5" fill="#1f77b4"/>
<text x="616" y="86" font-size="13">rho=0.5</text>
<circle cx="604" cy="104" r="5" fill="#d62728"/>
<text x="616" y="108" font-size="13">rho=1</text>
<circle cx="604" cy="126" r="5" fill="#2ca02c"/>
<text x="616" y="130" font-size="13">rho=2</text>
</svg>
