<svg xmlns="http://www.w3.org/2000/svg" width="760" height="540" viewBox="0 0 760 540">
<rect width="100%" height="100%" fill="#fafafa"/>
<rect x="92" y="58" width="640" height="404" fill="white" stroke="#222" stroke-width="1"/>
<line x1="92.00" y1="58" x2="92.00" y2="462" stroke="#ddd"/>
<line x1="92" y1="462.00" x2="732" y2="462.00" stroke="#ddd"/>
<text x="92.00" y="484" text-anchor="middle" font-size="12">0.57</text>
<text x="82" y="466.00" text-anchor="end" font-size="12">-1.4</text>
<line x1="220.00" y1="58" x2="220.00" y2="462" stroke="#ddd"/>
<line x1="92" y1="381.20" x2="732" y2="381.20" stroke="#ddd"/>
<text x="220.00" y="484" text-anchor="middle" font-size="12">0.66</text>
<text x="82" y="385.20" text-anchor="end" font-size="12">-1.1</text>
<line x1="348.00" y1="58" x2="348.00" y2="462" stroke="#ddd"/>
<line x1="92" y1="300.40" x2="732" y2="300.40" stroke="#ddd"/>
<text x="348.00" y="484" text-anchor="middle" font-size="12">0.75</text>
<text x="82" y="304.40" text-anchor="end" font-size="12">-0.92</text>
<line x1="476.00" y1="58" x2="476.00" y2="462" stroke="#ddd"/>
<line x1="92" y1="219.60" x2="732" y2="219.60" stroke="#ddd"/>
<text x="476.00" y="484" text-anchor="middle" font-size="12">0.85</text>
<text x="82" y="223.60" text-anchor="end" font-size="12">-0.69</text>
<line x1="604.00" y1="58" x2="604.00" y2="462" stroke="#ddd"/>
<line x1="92" y1="138.80" x2="732" y2="138.80" stroke="#ddd"/>
<text x="604.00" y="484" text-anchor="middle" font-size="12">0.94</text>
<text x="82" y="142.80" text-anchor="end" font-size="12">-0.46</text>
<line x1="732.00" y1="58" x2="732.00" y2="462" stroke="#ddd"/>
<line x1="92" y1="58.00" x2="732" y2="58.00" stroke="#ddd"/>
<text x="732.00" y="484" text-anchor="middle" font-size="12">1</text>
<text x="82" y="62.00" text-anchor="end" font-size="12">-0.23</text>
<text x="380.0" y="28" text-anchor="middle" font-size="20" font-weight="600">F2. 4D fractional link efficiency</text>
<text x="380.0" y="516" text-anchor="middle" font-size="15">log10 R</text>
<text x="24" y="270.0" text-anchor="middle" font-size="15" transform="rotate(-90 24 270.0)">log10 epsilon_link</text>
<polyline points="136.14,85.86 380.28,198.08 553.50,271.42 687.86,334.30" fill="none" stroke="#1f77b4" stroke-width="2"/>
<circle cx="136.14" cy="85.86" r="5" fill="#1f77b4" stroke="white" stroke-width="1"/>
<circle cx="380.28" cy="198.08" r="5" fill="#1f77b4" stroke="white" stroke-width="1"/>
<circle cx="553.50" cy="271.42" r="5" fill="#1f77b4" stroke="white" stroke-width="1"/>
<circle cx="687.86" cy="334.30" r="5" fill="#1f77b4" stroke="white" stroke-width="1"/>
<polyline points="136.14,131.68 380.28,237.26 553.50,323.87 687.86,387.51" fill="none" stroke="#d62728" stroke-width="2"/>
<circle cx="136.14" cy="131.68" r="5" fill="#d62728" stroke="white" stroke-width="1"/>
<circle cx="380.28" cy="237.26" r="5" fill="#d62728" stroke="white" stroke-width="1"/>
<circle cx="553.50" cy="323.87" r="5" fill="#d62728" stroke="white" stroke-width="1"/>
<circle cx="687.86" cy="387.51" r="5" fill="#d62728" stroke="white" stroke-width="1"/>
<polyline points="136.14,180.54 380.28,290.52 553.50,369.97 687.86,434.14" fill="none" stroke="#2ca02c" stroke-width="2"/>
<circle cx="136.14" cy="180.54" r="5" fill="#2ca02c" stroke="white" stroke-width="1"/>
<circle cx="380.28" cy="290.52" r="5" fill="#2ca02c" stroke="white" stroke-width="1"/>
<circle cx="553.50" cy="369.97" r="5" fill="#2ca02c" stroke="white" stroke-width="1"/>
<circle cx="687.86" cy="434.14" r="5" fill="#2ca02c" stroke="white" stroke-width="1"/>
<circle cx="604" cy="82" r="5" fill="#1f77b4"/>
<text x="616" y="86" font-size="13">rho=0.5</text>
<circle cx="604" cy="104" r="5" fill="#d62728"/>
<text x="616" y="108" font-size="13">rho=1</text>
<circle cx="604" cy="126" r="5" fill="#2ca02c"/>
<text x="616" y="130" font-size="13">rho=2</text>
</svg>
